<svg viewBox="0 0 837 414" version="1.1" xmlns="http://www.w3.org/2000/svg" xmlns:xlink="http://www.w3.org/1999/xlink" overflow="visible" id="ugrhcq4">
   <desc>Engraved by Verovio 6.3.0-425dd7b</desc>
   <defs>
      <g id="E050-ugrhcq4">
         <path transform="scale(1,-1)" d="M441 -245c-23 -4 -48 -6 -76 -6c-59 0 -102 7 -130 20c-88 42 -150 93 -187 154c-26 44 -43 103 -48 176c0 6 -1 13 -1 19c0 54 15 111 45 170c29 57 65 106 110 148s96 85 153 127c-3 16 -8 46 -13 92c-4 43 -5 73 -5 89c0 117 16 172 69 257c34 54 64 82 89 82 c21 0 43 -30 69 -92s39 -115 41 -159v-15c0 -109 -21 -162 -67 -241c-13 -20 -63 -90 -98 -118c-13 -9 -25 -19 -37 -29l31 -181c8 1 18 2 28 2c58 0 102 -12 133 -35c59 -43 92 -104 98 -184c1 -7 1 -15 1 -22c0 -123 -87 -209 -181 -248c8 -57 17 -110 25 -162 c5 -31 6 -58 6 -80c0 -30 -5 -53 -14 -70c-35 -64 -88 -99 -158 -103c-5 0 -11 -1 -16 -1c-37 0 -72 10 -108 27c-50 24 -77 59 -80 105v11c0 29 7 55 20 76c18 28 45 42 79 44h6c49 0 93 -42 97 -87v-9c0 -51 -34 -86 -105 -106c17 -24 51 -36 102 -36c62 0 116 43 140 85 c9 16 13 41 13 74c0 20 -1 42 -5 67c-8 53 -18 106 -26 159zM461 939c-95 0 -135 -175 -135 -286c0 -24 2 -48 5 -71c50 39 92 82 127 128c40 53 60 100 60 140v8c-4 53 -22 81 -55 81h-2zM406 119l54 -326c73 25 110 78 110 161c0 7 0 15 -1 23c-7 95 -57 142 -151 142h-12 zM382 117c-72 -2 -128 -47 -128 -120v-7c2 -46 43 -99 75 -115c-3 -2 -7 -5 -10 -10c-70 33 -116 88 -123 172v11c0 68 44 126 88 159c23 17 49 29 78 36l-29 170c-21 -13 -52 -37 -92 -73c-50 -44 -86 -84 -109 -119c-45 -69 -67 -130 -67 -182v-13c5 -68 35 -127 93 -176 s125 -73 203 -73c25 0 50 3 75 9c-19 111 -36 221 -54 331z" />
      </g>
      <g id="E260-ugrhcq4">
         <path transform="scale(1,-1)" d="M20 110c32 16 54 27 93 27c26 0 35 -3 54 -13c13 -7 24 -20 27 -38l4 -25c0 -28 -16 -57 -45 -89c-23 -25 -39 -44 -65 -68l-88 -79v644h20v-359zM90 106c-32 0 -48 -10 -70 -29v-194c31 31 54 59 71 84c21 32 32 59 32 84c0 9 1 16 1 20c0 14 -3 21 -11 30l-8 3z" />
      </g>
      <g id="E08A-ugrhcq4">
         <path transform="scale(1,-1)" d="M340 179c-9 24 -56 41 -89 41c-46 0 -81 -28 -100 -58c-17 -28 -25 -78 -25 -150c0 -65 2 -111 8 -135c8 -31 18 -49 40 -67c20 -17 43 -25 70 -25c54 0 92 36 115 75c14 25 23 54 28 88h27c0 -63 -24 -105 -58 -141c-35 -38 -82 -56 -140 -56c-45 0 -83 13 -115 39 c-57 45 -101 130 -101 226c0 59 33 127 68 163c36 37 97 72 160 72c36 0 93 -21 121 -40c11 -8 23 -17 33 -30c19 -23 27 -48 27 -76c0 -51 -35 -88 -86 -88c-43 0 -76 27 -76 68c0 26 7 35 21 51c15 17 32 27 58 32c7 2 14 7 14 11z" />
      </g>
      <g id="E0A3-ugrhcq4">
         <path transform="scale(1,-1)" d="M278 64c0 22 -17 39 -43 39c-12 0 -26 -3 -41 -10c-85 -43 -165 -94 -165 -156c5 -25 15 -32 49 -32c67 11 200 95 200 159zM0 -36c0 68 73 174 200 174c66 0 114 -39 114 -97c0 -84 -106 -173 -218 -173c-64 0 -96 32 -96 96z" />
      </g>
      <g id="E0A4-ugrhcq4">
         <path transform="scale(1,-1)" d="M0 -39c0 68 73 172 200 172c66 0 114 -37 114 -95c0 -84 -106 -171 -218 -171c-64 0 -96 30 -96 94z" />
      </g>
      <g id="E05C-ugrhcq4">
         <path transform="scale(1,-1)" d="M175 502h43v-456c10 5 18 12 37 29c16 19 22 27 27 38s8 24 14 49c3 22 5 43 5 62c7 -34 31 -54 73 -60c73 18 99 61 100 165c0 46 -10 78 -31 100c-18 23 -41 35 -69 35c-40 0 -65 -32 -66 -84c6 12 11 16 39 24c5 0 2 1 16 -4l17 -10l10 -14l7 -18 c-4 -32 -23 -48 -56 -48c-51 0 -77 33 -77 98c10 35 16 47 30 61c9 9 15 14 23 17c3 3 22 9 27 11l34 3l35 2c123 0 192 -64 192 -178l1 -33c0 -52 -20 -97 -60 -134c-18 -15 -42 -28 -74 -39c-30 -9 -63 -13 -101 -13l-93 -88v-34l93 -88c38 0 71 -4 101 -13 c32 -11 56 -24 74 -39c40 -37 60 -82 60 -134l-3 -33c0 -115 -68 -178 -190 -178l-35 2l-34 3c-5 2 -24 8 -27 11c-26 11 -40 32 -53 78c0 65 26 98 77 98c33 0 52 -16 56 -48l-7 -18l-10 -14l-17 -10c-14 -5 -11 -4 -16 -4c-28 8 -33 12 -39 24c1 -52 26 -84 66 -84 c28 0 51 12 69 35c21 22 31 54 31 100c-1 104 -27 147 -100 165c-42 -6 -66 -26 -73 -60c0 19 -2 40 -5 62c-6 25 -9 38 -14 49s-11 19 -27 38c-19 17 -27 24 -37 29v-456h-43v1004zM0 502h118v-1004h-118v1004z" />
      </g>
      <g id="E4E4-ugrhcq4">
         <path transform="scale(1,-1)" d="M0 10v105c0 9 1 10 10 10h280c9 0 10 -1 10 -10v-105c0 -9 -1 -10 -10 -10h-280c-9 0 -10 1 -10 10z" />
      </g>
      <g id="E0A2-ugrhcq4">
         <path transform="scale(1,-1)" d="M198 133c102 0 207 -45 207 -133c0 -92 -118 -133 -227 -133c-101 0 -178 46 -178 133c0 88 93 133 198 133zM293 -21c0 14 -3 29 -8 44c-7 20 -18 38 -33 54c-20 21 -43 31 -68 31l-20 -2c-15 -5 -27 -14 -36 -28c-4 -9 -6 -17 -8 -24s-3 -16 -3 -27c0 -15 3 -34 9 -57 s18 -41 34 -55c15 -15 36 -23 62 -23c4 0 10 1 18 2c19 5 32 15 40 30s13 34 13 55z" />
      </g>
      <g id="E062-ugrhcq4">
         <path transform="scale(1,-1)" d="M582 -120c0 32 26 58 58 58s58 -26 58 -58s-26 -58 -58 -58s-58 26 -58 58zM582 120c0 32 26 58 58 58s58 -26 58 -58s-26 -58 -58 -58s-58 26 -58 58zM158 96c51 0 73 -14 88 -49l16 -39c0 -17 -2 -30 -7 -40c-3 -11 -10 -21 -19 -31c-17 -18 -49 -43 -84 -43 c-55 0 -77 13 -112 44c-24 21 -35 55 -35 100c0 46 14 81 32 112c30 52 71 79 137 93l36 6l26 2c154 0 235 -68 274 -182c11 -32 18 -68 18 -107c0 -103 -26 -182 -68 -250c-89 -145 -234 -230 -412 -288l-30 -5c-9 0 -14 3 -14 8c3 10 5 11 10 16c35 15 70 30 96 44l78 43 c96 57 162 136 197 258c9 33 17 60 22 100c3 22 5 35 6 39c-7 69 -16 115 -23 140s-4 22 -16 40c-8 12 -19 23 -31 34c-24 21 -62 44 -118 44c-48 0 -84 -8 -113 -28c-28 -19 -42 -44 -42 -73v-16c2 -5 3 -9 4 -11c24 22 52 39 84 39z" />
      </g>
      <g id="E522-ugrhcq4">
         <path transform="scale(1,-1)" d="M-91 -179c-2 -3 -3 -5 -2 -7s4 -3 11 -4c19 0 34 14 47 41c7 14 13 30 20 48s12 35 15 52l14 61l44 208h-58v38h70c7 21 13 36 18 47c7 18 15 33 22 44c21 30 42 53 65 69s48 24 75 24c9 0 17 -1 23 -3s12 -7 19 -16c5 -7 8 -13 9 -19l4 -16c0 -15 -1 -25 -2 -32 s-5 -16 -11 -28c-3 -6 -9 -13 -18 -21c-4 -3 -8 -5 -13 -6s-10 -1 -17 0c-6 1 -10 5 -13 11s-5 13 -6 20c0 12 2 23 7 32s12 17 22 24l14 10c0 9 -6 14 -18 16h-6c-11 0 -20 -2 -28 -8c-9 -7 -19 -21 -29 -43c-5 -12 -10 -30 -17 -53s-11 -40 -14 -50h77v-40h-85 c-12 -69 -29 -137 -51 -206c-18 -55 -35 -99 -52 -131c-13 -26 -27 -47 -41 -63c-25 -29 -50 -43 -76 -43c-25 0 -43 10 -56 29c-10 15 -15 33 -15 54c0 17 4 33 12 48c5 7 10 13 17 17s13 6 20 6c9 0 16 -4 21 -12s9 -15 11 -22s3 -12 3 -17c0 -9 -2 -17 -7 -24 s-9 -14 -14 -21s-8 -12 -11 -14z" />
      </g>
      <g id="E52B-ugrhcq4">
         <path transform="scale(1,-1)" d="M497 201c-12 -21 -22 -45 -29 -72c-7 -30 -10 -51 -10 -62c0 -24 7 -36 22 -36c13 0 23 2 31 7s15 11 21 20c10 17 15 26 16 28c5 11 8 26 10 44s3 31 4 39c0 7 -1 13 -2 18s-3 9 -6 14c-5 9 -15 14 -28 14c-14 0 -24 -5 -29 -14zM197 201c-12 -21 -22 -45 -29 -72 c-7 -30 -10 -51 -10 -62c0 -24 7 -36 22 -36c13 0 23 2 31 7s15 11 21 20c10 17 15 26 16 28c5 11 8 26 10 44s3 31 4 39c0 7 -1 13 -2 18s-3 9 -6 14c-5 9 -15 14 -28 14c-14 0 -24 -5 -29 -14zM23 124h-23c22 43 43 76 62 101s45 37 76 38c6 0 12 -4 18 -13 c7 -7 10 -16 10 -27l24 14l25 13c12 5 24 7 37 7c24 0 43 -9 58 -28c10 -13 18 -30 21 -50c11 18 21 33 31 46c19 25 45 37 76 38c6 0 12 -4 18 -13c7 -7 10 -16 10 -27l24 14l25 13c12 5 24 7 37 7c24 0 43 -9 58 -28s22 -44 23 -77c0 -14 -1 -27 -3 -38s-5 -21 -10 -29 s-11 -17 -19 -27c-14 -18 -30 -32 -47 -42s-35 -15 -54 -15c-9 0 -20 3 -33 10c-5 3 -10 7 -15 10s-9 8 -13 14l-56 -158l-3 -4c3 -7 7 -10 12 -11h32v-29h-173v29h21c4 0 9 2 14 5c4 4 7 9 9 14l119 331v6l-3 10l-6 3c-9 0 -17 -4 -25 -12s-16 -18 -23 -31l-11 -17l-10 -20 l-3 -6c0 -11 -1 -22 -3 -31c-2 -11 -5 -21 -10 -29s-11 -17 -19 -27c-14 -18 -30 -32 -47 -42s-35 -15 -54 -15c-9 0 -20 3 -33 10c-5 3 -10 7 -15 10s-9 8 -13 14l-56 -158l-3 -4c3 -7 7 -10 12 -11h32v-29h-173v29h21c4 0 9 2 14 5c4 4 7 9 9 14l119 331v6l-3 10l-6 3 c-9 0 -17 -4 -25 -12s-16 -18 -23 -31l-11 -17l-10 -20z" />
      </g>
      <g id="E4E5-ugrhcq4">
         <path transform="scale(1,-1)" d="M107 292c-13 24 -30 49 -52 71c-1 1 0 2 0 3l-2 2c3 3 4 4 6 4c12 0 26 -7 40 -20s44 -40 89 -81c26 -24 28 -29 46 -47c4 -4 8 -9 10 -14c6 -8 8 -16 8 -27c0 -19 -12 -40 -36 -61c-28 -23 -49 -38 -61 -73c-4 -11 -7 -27 -10 -50c13 -43 34 -83 59 -121 c31 -47 59 -79 101 -129c-8 0 -26 7 -54 20l-62 29l-21 6l-23 1c-25 0 -45 -10 -60 -30l-4 -14l-1 -12c0 -33 20 -56 39 -78c8 -9 17 -18 26 -26c17 -15 27 -24 28 -30l-3 -3c-11 5 -19 10 -25 15c-9 3 -37 21 -45 26c-24 14 -45 32 -63 51c-19 21 -37 44 -37 71 c0 63 27 95 80 95c41 0 86 -18 136 -52c-19 26 -37 48 -55 66c-23 23 -48 44 -73 65c-28 23 -47 40 -58 53s-17 26 -18 39c75 64 113 125 113 183c0 27 -7 48 -18 68z" />
      </g>
   </defs>
   <style type="text/css">#ugrhcq4 g.ending, #ugrhcq4 g.fing, #ugrhcq4 g.reh, #ugrhcq4 g.tempo {font-weight:bold;}#ugrhcq4 g.dir, #ugrhcq4 g.dynam, #ugrhcq4 g.mNum {font-style:italic;}#ugrhcq4 g.label {font-weight:normal;}#ugrhcq4 ellipse, #ugrhcq4 path, #ugrhcq4 polygon, #ugrhcq4 polyline, #ugrhcq4 rect {stroke:currentColor}#ugrhcq4 g.cursor {fill:dodgerblue; color:dodgerblue;}#ugrhcq4 g.cursor.chord {fill:limegreen; color:limegreen;}</style>
   <svg class="definition-scale" color="black" font-family="Times, serif" viewBox="0 0 15200 7520">
      <g class="page-margin" transform="translate(140, 120)">
         <g id="e18tdskf" class="mdiv pageMilestone" />
         <g id="f1qjplrp" class="score pageMilestone" />
         <g id="w2clxzh" class="system">
            <path d="M2369 540 L2369 6741" stroke-width="27" />
            <g id="e1qjwzk5" class="label">
               <text x="2176" y="990" text-anchor="end" font-size="0px">
                  <tspan id="f1ds8ic7" class="text">
                     <tspan font-size="405px">C Horn 1</tspan>
                  </tspan>
               </text>
            </g>
            <g id="aiaah8n" class="label">
               <text x="2176" y="2871" text-anchor="end" font-size="0px">
                  <tspan id="b1bw2118" class="text">
                     <tspan font-size="405px">Trombone 1</tspan>
                  </tspan>
               </text>
            </g>
            <g id="w1yqjf3d" class="label">
               <text x="2176" y="4671" text-anchor="end" font-size="0px">
                  <tspan id="x14szfr2" class="text">
                     <tspan font-size="405px">Trombone 2</tspan>
                  </tspan>
               </text>
            </g>
            <g id="s172o2yv" class="label">
               <text x="2176" y="6471" text-anchor="end" font-size="0px">
                  <tspan id="tdqktbx" class="text">
                     <tspan font-size="405px">Trombone 3</tspan>
                  </tspan>
               </text>
            </g>
            <g id="hxod6ij" class="section systemMilestone" />
            <g id="q1mscjzy" class="section systemMilestone" />
            <g id="a6lepvy" class="measure">
               <g id="d19439f" class="mNum autogenerated">
                  <text x="2356" y="297" text-anchor="middle" font-size="0px">
                     <tspan id="e1v86say" class="text">
                        <tspan font-size="324px">30</tspan>
                     </tspan>
                  </text>
               </g>
               <g id="j15geqox" class="staff">
                  <path d="M2356 540 L7053 540" stroke-width="13" />
                  <path d="M2356 720 L7053 720" stroke-width="13" />
                  <path d="M2356 900 L7053 900" stroke-width="13" />
                  <path d="M2356 1080 L7053 1080" stroke-width="13" />
                  <path d="M2356 1260 L7053 1260" stroke-width="13" />
                  <g id="aaur4h9" class="clef">
                     <use xlink:href="#E050-ugrhcq4" transform="translate(2473, 1080) scale(0.72, 0.72)" />
                  </g>
                  <g id="b1ave11t" class="keySig">
                     <g id="c8lq7h7" class="keyAccid">
                        <use xlink:href="#E260-ugrhcq4" transform="translate(3154, 900) scale(0.72, 0.72)" />
                     </g>
                     <g id="d8sxko9" class="keyAccid">
                        <use xlink:href="#E260-ugrhcq4" transform="translate(3334, 630) scale(0.72, 0.72)" />
                     </g>
                     <g id="eqq9bwh" class="keyAccid">
                        <use xlink:href="#E260-ugrhcq4" transform="translate(3514, 990) scale(0.72, 0.72)" />
                     </g>
                  </g>
                  <g id="f1jr1ymw" class="meterSig">
                     <use xlink:href="#E08A-ugrhcq4" transform="translate(3836, 900) scale(0.72, 0.72)" />
                  </g>
                  <g id="o101z2lq" class="layer">
                     <g id="py8jytu" class="note">
                        <g class="notehead">
                           <use xlink:href="#E0A3-ugrhcq4" transform="translate(4404, 630) scale(0.72, 0.72)" />
                        </g>
                        <g id="z1nbsksd" class="dots">
                           <ellipse cx="4720" cy="630" rx="36" ry="36" />
                        </g>
                        <g id="y1l8l29k" class="stem">
                           <path d="M4413 655 L4413 1260" stroke-width="18" />
                        </g>
                     </g>
                     <g id="q1p8vd8s" class="beam">
                        <polygon points="6144,1440 6478,1485 6478,1395 6144,1350" />
                        <polygon points="6144,1305 6370,1338 6370,1248 6144,1215" />
                        <g id="r4j6j6f" class="note">
                           <g class="notehead">
                              <use xlink:href="#E0A4-ugrhcq4" transform="translate(6144, 720) scale(0.72, 0.72)" />
                           </g>
                           <g id="a1k7wd4t" class="stem">
                              <path d="M6153 748 L6153 1422" stroke-width="18" />
                           </g>
                        </g>
                        <g id="s69tp1u" class="note">
                           <g class="notehead">
                              <use xlink:href="#E0A4-ugrhcq4" transform="translate(6460, 810) scale(0.72, 0.72)" />
                           </g>
                           <g id="cljaxgv" class="dots">
                              <ellipse cx="6776" cy="810" rx="36" ry="36" />
                           </g>
                           <g id="be2p0lw" class="stem">
                              <path d="M6469 838 L6469 1467" stroke-width="18" />
                           </g>
                        </g>
                     </g>
                  </g>
               </g>
               <g id="hxpmme" class="staff">
                  <path d="M2356 2421 L7053 2421" stroke-width="13" />
                  <path d="M2356 2601 L7053 2601" stroke-width="13" />
                  <path d="M2356 2781 L7053 2781" stroke-width="13" />
                  <path d="M2356 2961 L7053 2961" stroke-width="13" />
                  <path d="M2356 3141 L7053 3141" stroke-width="13" />
                  <g id="g12vtqid" class="clef">
                     <use xlink:href="#E05C-ugrhcq4" transform="translate(2473, 2601) scale(0.72, 0.72)" />
                  </g>
                  <g id="h192ksms" class="keySig">
                     <g id="i1wduy2w" class="keyAccid">
                        <use xlink:href="#E260-ugrhcq4" transform="translate(3154, 2691) scale(0.72, 0.72)" />
                     </g>
                     <g id="jtpferl" class="keyAccid">
                        <use xlink:href="#E260-ugrhcq4" transform="translate(3334, 2421) scale(0.72, 0.72)" />
                     </g>
                     <g id="k1jt3jte" class="keyAccid">
                        <use xlink:href="#E260-ugrhcq4" transform="translate(3514, 2781) scale(0.72, 0.72)" />
                     </g>
                  </g>
                  <g id="l1l58xrt" class="meterSig">
                     <use xlink:href="#E08A-ugrhcq4" transform="translate(3836, 2781) scale(0.72, 0.72)" />
                  </g>
                  <g id="k16gdrad" class="layer">
                     <g id="l1kdej9g" class="rest">
                        <use xlink:href="#E4E4-ugrhcq4" transform="translate(4404, 2781) scale(0.72, 0.72)" />
                        <g class="ledgerLines" />
                     </g>
                     <g id="mux678p" class="note">
                        <g class="notehead">
                           <use xlink:href="#E0A3-ugrhcq4" transform="translate(5454, 2871) scale(0.72, 0.72)" />
                        </g>
                        <g id="d1osalq8" class="stem">
                           <path d="M5671 2843 L5671 2241" stroke-width="18" />
                        </g>
                     </g>
                  </g>
               </g>
               <g id="cwggzhy" class="staff">
                  <path d="M2356 4221 L7053 4221" stroke-width="13" />
                  <path d="M2356 4401 L7053 4401" stroke-width="13" />
                  <path d="M2356 4581 L7053 4581" stroke-width="13" />
                  <path d="M2356 4761 L7053 4761" stroke-width="13" />
                  <path d="M2356 4941 L7053 4941" stroke-width="13" />
                  <g id="mymtqs" class="clef">
                     <use xlink:href="#E05C-ugrhcq4" transform="translate(2473, 4401) scale(0.72, 0.72)" />
                  </g>
                  <g id="n1t1n6n2" class="keySig">
                     <g id="o9adka" class="keyAccid">
                        <use xlink:href="#E260-ugrhcq4" transform="translate(3154, 4491) scale(0.72, 0.72)" />
                     </g>
                     <g id="p82evnj" class="keyAccid">
                        <use xlink:href="#E260-ugrhcq4" transform="translate(3334, 4221) scale(0.72, 0.72)" />
                     </g>
                     <g id="q1eoq7go" class="keyAccid">
                        <use xlink:href="#E260-ugrhcq4" transform="translate(3514, 4581) scale(0.72, 0.72)" />
                     </g>
                  </g>
                  <g id="r5cxowu" class="meterSig">
                     <use xlink:href="#E08A-ugrhcq4" transform="translate(3836, 4581) scale(0.72, 0.72)" />
                  </g>
                  <g id="f3x62v2" class="layer">
                     <g id="g10c8olv" class="note">
                        <g class="notehead">
                           <use xlink:href="#E0A2-ugrhcq4" transform="translate(4404, 4851) scale(0.72, 0.72)" />
                        </g>
                     </g>
                  </g>
               </g>
               <g id="v137gjmk" class="staff">
                  <path d="M2356 6021 L7053 6021" stroke-width="13" />
                  <path d="M2356 6201 L7053 6201" stroke-width="13" />
                  <path d="M2356 6381 L7053 6381" stroke-width="13" />
                  <path d="M2356 6561 L7053 6561" stroke-width="13" />
                  <path d="M2356 6741 L7053 6741" stroke-width="13" />
                  <g id="s13u4u7v" class="clef">
                     <use xlink:href="#E062-ugrhcq4" transform="translate(2473, 6201) scale(0.72, 0.72)" />
                  </g>
                  <g id="t1dqyl85" class="keySig">
                     <g id="u1yzdjrm" class="keyAccid">
                        <use xlink:href="#E260-ugrhcq4" transform="translate(3154, 6561) scale(0.72, 0.72)" />
                     </g>
                     <g id="v1l66wyl" class="keyAccid">
                        <use xlink:href="#E260-ugrhcq4" transform="translate(3334, 6291) scale(0.72, 0.72)" />
                     </g>
                     <g id="wkpzx4o" class="keyAccid">
                        <use xlink:href="#E260-ugrhcq4" transform="translate(3514, 6651) scale(0.72, 0.72)" />
                     </g>
                  </g>
                  <g id="x1ja0x11" class="meterSig">
                     <use xlink:href="#E08A-ugrhcq4" transform="translate(3836, 6381) scale(0.72, 0.72)" />
                  </g>
                  <g id="y12j0hip" class="layer">
                     <g id="z119s2j" class="note">
                        <g class="notehead">
                           <use xlink:href="#E0A2-ugrhcq4" transform="translate(4404, 6471) scale(0.72, 0.72)" />
                        </g>
                     </g>
                  </g>
               </g>
               <g id="k16hfgwb" class="dynam">
                  <use xlink:href="#E522-ugrhcq4" transform="translate(4404, 1632) scale(0.72, 0.72)" />
               </g>
               <g id="m77ktx5" class="dir">
                  <text x="4404" y="2104" font-size="0px">
                     <tspan id="nnm94uv" class="text">
                        <tspan font-size="405px">sempre e passionato</tspan>
                     </tspan>
                  </text>
               </g>
               <g id="iw325ec" class="dynam">
                  <use xlink:href="#E52B-ugrhcq4" transform="translate(4404, 3375) scale(0.72, 0.72)" />
               </g>
               <g id="nws9e4f" class="tie">
                  <path d="M5725,2916 C6094,3023 6815,3023 7188,2916 C6824,3071 6085,3071 5725,2916" stroke-width="9" stroke-linecap="round" stroke-linejoin="round" />
               </g>
               <g id="ddrov4p" class="dynam">
                  <use xlink:href="#E52B-ugrhcq4" transform="translate(4404, 5175) scale(0.72, 0.72)" />
               </g>
               <g id="hixjtpe" class="tie">
                  <path d="M4739,4896 C5353,5001 6572,5001 7188,4896 C6577,5049 5348,5049 4739,4896" stroke-width="9" stroke-linecap="round" stroke-linejoin="round" />
               </g>
               <g id="w1u0fz6k" class="dynam">
                  <use xlink:href="#E52B-ugrhcq4" transform="translate(4404, 6975) scale(0.72, 0.72)" />
               </g>
               <g id="a2bwqc9" class="tie">
                  <path d="M4739,6516 C5353,6621 6572,6621 7188,6516 C6577,6669 5348,6669 4739,6516" stroke-width="9" stroke-linecap="round" stroke-linejoin="round" />
               </g>
               <g id="i1xalp0k" class="barLine">
                  <path d="M7040 540 L7040 1260" stroke-width="27" />
                  <path d="M7040 2421 L7040 3141" stroke-width="27" />
                  <path d="M7040 4221 L7040 4941" stroke-width="27" />
                  <path d="M7040 6021 L7040 6741" stroke-width="27" />
               </g>
            </g>
            <g id="tqw5fwq" class="measure">
               <g id="cmcac0f" class="staff">
                  <path d="M7053 540 L9676 540" stroke-width="13" />
                  <path d="M7053 720 L9676 720" stroke-width="13" />
                  <path d="M7053 900 L9676 900" stroke-width="13" />
                  <path d="M7053 1080 L9676 1080" stroke-width="13" />
                  <path d="M7053 1260 L9676 1260" stroke-width="13" />
                  <g id="d113qsrj" class="layer">
                     <g id="ez566i9" class="note">
                        <g class="notehead">
                           <use xlink:href="#E0A3-ugrhcq4" transform="translate(7233, 1080) scale(0.72, 0.72)" />
                        </g>
                        <g id="h73ekz9" class="dots">
                           <ellipse cx="7549" cy="990" rx="36" ry="36" />
                        </g>
                        <g id="g38po0y" class="stem">
                           <path d="M7450 1052 L7450 450" stroke-width="18" />
                        </g>
                     </g>
                     <g id="f1y9t5vx" class="rest">
                        <use xlink:href="#E4E5-ugrhcq4" transform="translate(8973, 900) scale(0.72, 0.72)" />
                     </g>
                  </g>
               </g>
               <g id="xazfkc1" class="staff">
                  <path d="M7053 2421 L9676 2421" stroke-width="13" />
                  <path d="M7053 2601 L9676 2601" stroke-width="13" />
                  <path d="M7053 2781 L9676 2781" stroke-width="13" />
                  <path d="M7053 2961 L9676 2961" stroke-width="13" />
                  <path d="M7053 3141 L9676 3141" stroke-width="13" />
                  <g id="y1uslzqw" class="layer">
                     <g id="z12ynx0e" class="note">
                        <g class="notehead">
                           <use xlink:href="#E0A3-ugrhcq4" transform="translate(7233, 2871) scale(0.72, 0.72)" />
                        </g>
                        <g id="i1m3hjps" class="stem">
                           <path d="M7450 2843 L7450 2241" stroke-width="18" />
                        </g>
                     </g>
                     <g id="a16l24mn" class="note">
                        <g class="notehead">
                           <use xlink:href="#E0A3-ugrhcq4" transform="translate(8283, 2601) scale(0.72, 0.72)" />
                        </g>
                        <g id="j1ntxna9" class="stem">
                           <path d="M8292 2626 L8292 3231" stroke-width="18" />
                        </g>
                     </g>
                  </g>
               </g>
               <g id="rofhh5n" class="staff">
                  <path d="M7053 4221 L9676 4221" stroke-width="13" />
                  <path d="M7053 4401 L9676 4401" stroke-width="13" />
                  <path d="M7053 4581 L9676 4581" stroke-width="13" />
                  <path d="M7053 4761 L9676 4761" stroke-width="13" />
                  <path d="M7053 4941 L9676 4941" stroke-width="13" />
                  <g id="s1qopsat" class="layer">
                     <g id="tigt58s" class="note">
                        <g class="notehead">
                           <use xlink:href="#E0A2-ugrhcq4" transform="translate(7233, 4851) scale(0.72, 0.72)" />
                        </g>
                     </g>
                  </g>
               </g>
               <g id="k1svzkvd" class="staff">
                  <path d="M7053 6021 L9676 6021" stroke-width="13" />
                  <path d="M7053 6201 L9676 6201" stroke-width="13" />
                  <path d="M7053 6381 L9676 6381" stroke-width="13" />
                  <path d="M7053 6561 L9676 6561" stroke-width="13" />
                  <path d="M7053 6741 L9676 6741" stroke-width="13" />
                  <g id="l15z804y" class="layer">
                     <g id="m1nrjkwf" class="note">
                        <g class="notehead">
                           <use xlink:href="#E0A3-ugrhcq4" transform="translate(7233, 6471) scale(0.72, 0.72)" />
                        </g>
                        <g id="l14uc55b" class="stem">
                           <path d="M7450 6443 L7450 5841" stroke-width="18" />
                        </g>
                     </g>
                     <g id="ngkwr91" class="note">
                        <g class="notehead">
                           <use xlink:href="#E0A3-ugrhcq4" transform="translate(8283, 6741) scale(0.72, 0.72)" />
                        </g>
                        <g id="m17cvgn4" class="stem">
                           <path d="M8500 6713 L8500 6111" stroke-width="18" />
                        </g>
                     </g>
                  </g>
               </g>
               <g id="b14lwazb" class="tie">
                  <path d="M8554,2556 C8863,2403 9500,2403 9811,2556 C9491,2451 8872,2451 8554,2556" stroke-width="9" stroke-linecap="round" stroke-linejoin="round" />
               </g>
               <g id="u1ddd939" class="slur">
                  <path d="M7378,5053 C8192,5392 9129,5425 9967,5141 C9138,5484 8179,5451 7378,5053" stroke-width="9" stroke-linecap="round" stroke-linejoin="round" />
               </g>
               <g id="omf7qg0" class="tie">
                  <path d="M8554,6786 C8872,6891 9491,6891 9811,6786 C9500,6939 8863,6939 8554,6786" stroke-width="9" stroke-linecap="round" stroke-linejoin="round" />
               </g>
               <g id="b17jqje4" class="barLine">
                  <path d="M9663 540 L9663 1260" stroke-width="27" />
                  <path d="M9663 2421 L9663 3141" stroke-width="27" />
                  <path d="M9663 4221 L9663 4941" stroke-width="27" />
                  <path d="M9663 6021 L9663 6741" stroke-width="27" />
               </g>
            </g>
            <g id="g935gtq" class="measure">
               <g id="piwi87c" class="staff">
                  <path d="M9676 540 L12299 540" stroke-width="13" />
                  <path d="M9676 720 L12299 720" stroke-width="13" />
                  <path d="M9676 900 L12299 900" stroke-width="13" />
                  <path d="M9676 1080 L12299 1080" stroke-width="13" />
                  <path d="M9676 1260 L12299 1260" stroke-width="13" />
                  <g id="q166fuvl" class="layer">
                     <g id="r8zz4ke" class="note">
                        <g class="notehead">
                           <use xlink:href="#E0A3-ugrhcq4" transform="translate(9856, 720) scale(0.72, 0.72)" />
                        </g>
                        <g id="o1v14cdt" class="dots">
                           <ellipse cx="10172" cy="630" rx="36" ry="36" />
                        </g>
                        <g id="nmdwz8w" class="stem">
                           <path d="M9865 745 L9865 1350" stroke-width="18" />
                        </g>
                     </g>
                     <g id="t97rbbu" class="note">
                        <g class="notehead">
                           <use xlink:href="#E0A4-ugrhcq4" transform="translate(11596, 630) scale(0.72, 0.72)" />
                        </g>
                        <g id="p1aj16gw" class="stem">
                           <path d="M11605 658 L11605 1260" stroke-width="18" />
                        </g>
                     </g>
                  </g>
               </g>
               <g id="lnvre1l" class="staff">
                  <path d="M9676 2421 L12299 2421" stroke-width="13" />
                  <path d="M9676 2601 L12299 2601" stroke-width="13" />
                  <path d="M9676 2781 L12299 2781" stroke-width="13" />
                  <path d="M9676 2961 L12299 2961" stroke-width="13" />
                  <path d="M9676 3141 L12299 3141" stroke-width="13" />
                  <g id="mseos0m" class="layer">
                     <g id="n1p1chw6" class="note">
                        <g class="notehead">
                           <use xlink:href="#E0A3-ugrhcq4" transform="translate(9856, 2601) scale(0.72, 0.72)" />
                        </g>
                        <g id="q1ogcmuo" class="stem">
                           <path d="M9865 2626 L9865 3231" stroke-width="18" />
                        </g>
                     </g>
                     <g id="o1bdze0v" class="note">
                        <g class="notehead">
                           <use xlink:href="#E0A3-ugrhcq4" transform="translate(10906, 2691) scale(0.72, 0.72)" />
                        </g>
                        <g id="rey5yac" class="stem">
                           <path d="M10915 2716 L10915 3321" stroke-width="18" />
                        </g>
                     </g>
                  </g>
               </g>
               <g id="euae2x4" class="staff">
                  <path d="M9676 4221 L12299 4221" stroke-width="13" />
                  <path d="M9676 4401 L12299 4401" stroke-width="13" />
                  <path d="M9676 4581 L12299 4581" stroke-width="13" />
                  <path d="M9676 4761 L12299 4761" stroke-width="13" />
                  <path d="M9676 4941 L12299 4941" stroke-width="13" />
                  <g id="f1ra0gzo" class="layer">
                     <g id="gcmn4lr" class="note">
                        <g class="notehead">
                           <use xlink:href="#E0A3-ugrhcq4" transform="translate(9856, 4941) scale(0.72, 0.72)" />
                        </g>
                        <g id="sabre84" class="stem">
                           <path d="M10073 4913 L10073 4311" stroke-width="18" />
                        </g>
                     </g>
                     <g id="h1armxrs" class="note">
                        <g class="notehead">
                           <use xlink:href="#E0A3-ugrhcq4" transform="translate(10906, 4761) scale(0.72, 0.72)" />
                        </g>
                        <g id="t1qb4tt0" class="stem">
                           <path d="M11123 4733 L11123 4131" stroke-width="18" />
                        </g>
                     </g>
                  </g>
               </g>
               <g id="yht1yix" class="staff">
                  <path d="M9676 6021 L12299 6021" stroke-width="13" />
                  <path d="M9676 6201 L12299 6201" stroke-width="13" />
                  <path d="M9676 6381 L12299 6381" stroke-width="13" />
                  <path d="M9676 6561 L12299 6561" stroke-width="13" />
                  <path d="M9676 6741 L12299 6741" stroke-width="13" />
                  <g id="z16z3046" class="layer">
                     <g id="acrm9zc" class="note">
                        <g class="notehead">
                           <use xlink:href="#E0A2-ugrhcq4" transform="translate(9856, 6741) scale(0.72, 0.72)" />
                        </g>
                     </g>
                  </g>
               </g>
               <g id="stceknn" class="slur">
                  <path d="M9969,517 C10410,193 11233,150 11707,427 C11220,211 10429,252 9969,517" stroke-width="9" stroke-linecap="round" stroke-linejoin="round" />
               </g>
               <g id="bleqz2n" class="tie">
                  <path d="M10191,6786 C10753,6891 11868,6891 12434,6786 C11873,6939 10748,6939 10191,6786" stroke-width="9" stroke-linecap="round" stroke-linejoin="round" />
               </g>
               <g id="opc2n0y" class="barLine">
                  <path d="M12286 540 L12286 1260" stroke-width="27" />
                  <path d="M12286 2421 L12286 3141" stroke-width="27" />
                  <path d="M12286 4221 L12286 4941" stroke-width="27" />
                  <path d="M12286 6021 L12286 6741" stroke-width="27" />
               </g>
            </g>
            <g id="u1rm7rl5" class="measure">
               <g id="dcxvjnb" class="staff">
                  <path d="M12299 540 L14922 540" stroke-width="13" />
                  <path d="M12299 720 L14922 720" stroke-width="13" />
                  <path d="M12299 900 L14922 900" stroke-width="13" />
                  <path d="M12299 1080 L14922 1080" stroke-width="13" />
                  <path d="M12299 1260 L14922 1260" stroke-width="13" />
                  <g id="e14a68h9" class="layer">
                     <g id="fm1gqm4" class="note">
                        <g class="notehead">
                           <use xlink:href="#E0A3-ugrhcq4" transform="translate(12479, 810) scale(0.72, 0.72)" />
                        </g>
                        <g id="w14qyraj" class="dots">
                           <ellipse cx="12795" cy="810" rx="36" ry="36" />
                        </g>
                        <g id="v1kkik3u" class="stem">
                           <path d="M12488 835 L12488 1440" stroke-width="18" />
                        </g>
                     </g>
                     <g id="g1njl1p1" class="rest">
                        <use xlink:href="#E4E5-ugrhcq4" transform="translate(14219, 900) scale(0.72, 0.72)" />
                     </g>
                  </g>
               </g>
               <g id="y1xd04y6" class="staff">
                  <path d="M12299 2421 L14922 2421" stroke-width="13" />
                  <path d="M12299 2601 L14922 2601" stroke-width="13" />
                  <path d="M12299 2781 L14922 2781" stroke-width="13" />
                  <path d="M12299 2961 L14922 2961" stroke-width="13" />
                  <path d="M12299 3141 L14922 3141" stroke-width="13" />
                  <g id="z1lt85a3" class="layer">
                     <g id="a15s86mw" class="note">
                        <g class="notehead">
                           <use xlink:href="#E0A3-ugrhcq4" transform="translate(12479, 2601) scale(0.72, 0.72)" />
                        </g>
                        <g id="y1wvnciu" class="dots">
                           <ellipse cx="12795" cy="2511" rx="36" ry="36" />
                        </g>
                        <g id="x1oohv4s" class="stem">
                           <path d="M12488 2626 L12488 3231" stroke-width="18" />
                        </g>
                     </g>
                     <g id="bl7tqrx" class="rest">
                        <use xlink:href="#E4E5-ugrhcq4" transform="translate(14219, 2781) scale(0.72, 0.72)" />
                     </g>
                  </g>
               </g>
               <g id="rhl29c1" class="staff">
                  <path d="M12299 4221 L14922 4221" stroke-width="13" />
                  <path d="M12299 4401 L14922 4401" stroke-width="13" />
                  <path d="M12299 4581 L14922 4581" stroke-width="13" />
                  <path d="M12299 4761 L14922 4761" stroke-width="13" />
                  <path d="M12299 4941 L14922 4941" stroke-width="13" />
                  <g id="s1i7ujtt" class="layer">
                     <g id="trzym24" class="note">
                        <g class="notehead">
                           <use xlink:href="#E0A3-ugrhcq4" transform="translate(12479, 4851) scale(0.72, 0.72)" />
                        </g>
                        <g id="asochf3" class="dots">
                           <ellipse cx="12795" cy="4851" rx="36" ry="36" />
                        </g>
                        <g id="z7mks10" class="stem">
                           <path d="M12696 4823 L12696 4221" stroke-width="18" />
                        </g>
                     </g>
                     <g id="u183sily" class="rest">
                        <use xlink:href="#E4E5-ugrhcq4" transform="translate(14219, 4581) scale(0.72, 0.72)" />
                     </g>
                  </g>
               </g>
               <g id="l6tflpw" class="staff">
                  <path d="M12299 6021 L14922 6021" stroke-width="13" />
                  <path d="M12299 6201 L14922 6201" stroke-width="13" />
                  <path d="M12299 6381 L14922 6381" stroke-width="13" />
                  <path d="M12299 6561 L14922 6561" stroke-width="13" />
                  <path d="M12299 6741 L14922 6741" stroke-width="13" />
                  <g id="my69p9n" class="layer">
                     <g id="n2kdhcu" class="note">
                        <g class="notehead">
                           <use xlink:href="#E0A3-ugrhcq4" transform="translate(12479, 6741) scale(0.72, 0.72)" />
                        </g>
                        <g id="bfidvvs" class="stem">
                           <path d="M12696 6713 L12696 6111" stroke-width="18" />
                        </g>
                     </g>
                     <g id="o1tpjcvw" class="note">
                        <g class="notehead">
                           <use xlink:href="#E0A4-ugrhcq4" transform="translate(13529, 6471) scale(0.72, 0.72)" />
                        </g>
                        <g id="c3cpv4c" class="stem">
                           <path d="M13746 6443 L13746 5841" stroke-width="18" />
                        </g>
                     </g>
                     <g id="p19a0mlq" class="rest">
                        <use xlink:href="#E4E5-ugrhcq4" transform="translate(14219, 6381) scale(0.72, 0.72)" />
                     </g>
                  </g>
               </g>
               <g id="c1ds9yar" class="barLine">
                  <path d="M14909 540 L14909 1260" stroke-width="27" />
                  <path d="M14909 2421 L14909 3141" stroke-width="27" />
                  <path d="M14909 4221 L14909 4941" stroke-width="27" />
                  <path d="M14909 6021 L14909 6741" stroke-width="27" />
               </g>
            </g>
            <g id="zurbj16" class="systemMilestoneEnd q1mscjzy" />
            <g id="ang8dkt" class="systemMilestoneEnd hxod6ij" />
         </g>
         <g id="bbj8noq" class="pageMilestoneEnd f1qjplrp" />
         <g id="c8fez1b" class="pageMilestoneEnd e18tdskf" />
      </g>
   </svg>
</svg>
