<svg viewBox="0 0 770 442" version="1.1" xmlns="http://www.w3.org/2000/svg" xmlns:xlink="http://www.w3.org/1999/xlink" overflow="visible" id="s1idic30">
   <desc>Engraved by Verovio 6.3.0-425dd7b</desc>
   <defs>
      <g id="E050-s1idic30">
         <path transform="scale(1,-1)" d="M441 -245c-23 -4 -48 -6 -76 -6c-59 0 -102 7 -130 20c-88 42 -150 93 -187 154c-26 44 -43 103 -48 176c0 6 -1 13 -1 19c0 54 15 111 45 170c29 57 65 106 110 148s96 85 153 127c-3 16 -8 46 -13 92c-4 43 -5 73 -5 89c0 117 16 172 69 257c34 54 64 82 89 82 c21 0 43 -30 69 -92s39 -115 41 -159v-15c0 -109 -21 -162 -67 -241c-13 -20 -63 -90 -98 -118c-13 -9 -25 -19 -37 -29l31 -181c8 1 18 2 28 2c58 0 102 -12 133 -35c59 -43 92 -104 98 -184c1 -7 1 -15 1 -22c0 -123 -87 -209 -181 -248c8 -57 17 -110 25 -162 c5 -31 6 -58 6 -80c0 -30 -5 -53 -14 -70c-35 -64 -88 -99 -158 -103c-5 0 -11 -1 -16 -1c-37 0 -72 10 -108 27c-50 24 -77 59 -80 105v11c0 29 7 55 20 76c18 28 45 42 79 44h6c49 0 93 -42 97 -87v-9c0 -51 -34 -86 -105 -106c17 -24 51 -36 102 -36c62 0 116 43 140 85 c9 16 13 41 13 74c0 20 -1 42 -5 67c-8 53 -18 106 -26 159zM461 939c-95 0 -135 -175 -135 -286c0 -24 2 -48 5 -71c50 39 92 82 127 128c40 53 60 100 60 140v8c-4 53 -22 81 -55 81h-2zM406 119l54 -326c73 25 110 78 110 161c0 7 0 15 -1 23c-7 95 -57 142 -151 142h-12 zM382 117c-72 -2 -128 -47 -128 -120v-7c2 -46 43 -99 75 -115c-3 -2 -7 -5 -10 -10c-70 33 -116 88 -123 172v11c0 68 44 126 88 159c23 17 49 29 78 36l-29 170c-21 -13 -52 -37 -92 -73c-50 -44 -86 -84 -109 -119c-45 -69 -67 -130 -67 -182v-13c5 -68 35 -127 93 -176 s125 -73 203 -73c25 0 50 3 75 9c-19 111 -36 221 -54 331z" />
      </g>
      <g id="E08B-s1idic30">
         <path transform="scale(1,-1)" d="M188 200c-42 -22 -63 -69 -63 -141v-119c0 -39 7 -70 19 -94s26 -40 44 -48v402zM0 -0c0 127 80 220 186 246v72h32l-6 -72c33 0 71 0 101 -11c54 -20 102 -65 102 -135c0 -16 -4 -30 -13 -43s-20 -24 -32 -29l-20 -8l-23 -3c-22 2 -41 8 -55 21s-21 31 -26 51 c0 38 45 80 79 80c12 0 19 3 19 10c0 6 -6 12 -15 18c-19 13 -47 24 -79 24c-10 0 -20 -1 -32 -5v-431c15 -3 12 -4 30 -4c57 0 100 51 121 93l17 39c3 13 5 25 5 35h26c-6 -70 -28 -121 -66 -152s-82 -47 -133 -47v-68h-30v72c-57 10 -122 54 -153 109c-7 12 -13 26 -19 42 c-11 29 -16 61 -16 96z" />
      </g>
      <g id="E4E5-s1idic30">
         <path transform="scale(1,-1)" d="M107 292c-13 24 -30 49 -52 71c-1 1 0 2 0 3l-2 2c3 3 4 4 6 4c12 0 26 -7 40 -20s44 -40 89 -81c26 -24 28 -29 46 -47c4 -4 8 -9 10 -14c6 -8 8 -16 8 -27c0 -19 -12 -40 -36 -61c-28 -23 -49 -38 -61 -73c-4 -11 -7 -27 -10 -50c13 -43 34 -83 59 -121 c31 -47 59 -79 101 -129c-8 0 -26 7 -54 20l-62 29l-21 6l-23 1c-25 0 -45 -10 -60 -30l-4 -14l-1 -12c0 -33 20 -56 39 -78c8 -9 17 -18 26 -26c17 -15 27 -24 28 -30l-3 -3c-11 5 -19 10 -25 15c-9 3 -37 21 -45 26c-24 14 -45 32 -63 51c-19 21 -37 44 -37 71 c0 63 27 95 80 95c41 0 86 -18 136 -52c-19 26 -37 48 -55 66c-23 23 -48 44 -73 65c-28 23 -47 40 -58 53s-17 26 -18 39c75 64 113 125 113 183c0 27 -7 48 -18 68z" />
      </g>
      <g id="E0A4-s1idic30">
         <path transform="scale(1,-1)" d="M0 -39c0 68 73 172 200 172c66 0 114 -37 114 -95c0 -84 -106 -171 -218 -171c-64 0 -96 30 -96 94z" />
      </g>
      <g id="E05C-s1idic30">
         <path transform="scale(1,-1)" d="M175 502h43v-456c10 5 18 12 37 29c16 19 22 27 27 38s8 24 14 49c3 22 5 43 5 62c7 -34 31 -54 73 -60c73 18 99 61 100 165c0 46 -10 78 -31 100c-18 23 -41 35 -69 35c-40 0 -65 -32 -66 -84c6 12 11 16 39 24c5 0 2 1 16 -4l17 -10l10 -14l7 -18 c-4 -32 -23 -48 -56 -48c-51 0 -77 33 -77 98c10 35 16 47 30 61c9 9 15 14 23 17c3 3 22 9 27 11l34 3l35 2c123 0 192 -64 192 -178l1 -33c0 -52 -20 -97 -60 -134c-18 -15 -42 -28 -74 -39c-30 -9 -63 -13 -101 -13l-93 -88v-34l93 -88c38 0 71 -4 101 -13 c32 -11 56 -24 74 -39c40 -37 60 -82 60 -134l-3 -33c0 -115 -68 -178 -190 -178l-35 2l-34 3c-5 2 -24 8 -27 11c-26 11 -40 32 -53 78c0 65 26 98 77 98c33 0 52 -16 56 -48l-7 -18l-10 -14l-17 -10c-14 -5 -11 -4 -16 -4c-28 8 -33 12 -39 24c1 -52 26 -84 66 -84 c28 0 51 12 69 35c21 22 31 54 31 100c-1 104 -27 147 -100 165c-42 -6 -66 -26 -73 -60c0 19 -2 40 -5 62c-6 25 -9 38 -14 49s-11 19 -27 38c-19 17 -27 24 -37 29v-456h-43v1004zM0 502h118v-1004h-118v1004z" />
      </g>
      <g id="E062-s1idic30">
         <path transform="scale(1,-1)" d="M582 -120c0 32 26 58 58 58s58 -26 58 -58s-26 -58 -58 -58s-58 26 -58 58zM582 120c0 32 26 58 58 58s58 -26 58 -58s-26 -58 -58 -58s-58 26 -58 58zM158 96c51 0 73 -14 88 -49l16 -39c0 -17 -2 -30 -7 -40c-3 -11 -10 -21 -19 -31c-17 -18 -49 -43 -84 -43 c-55 0 -77 13 -112 44c-24 21 -35 55 -35 100c0 46 14 81 32 112c30 52 71 79 137 93l36 6l26 2c154 0 235 -68 274 -182c11 -32 18 -68 18 -107c0 -103 -26 -182 -68 -250c-89 -145 -234 -230 -412 -288l-30 -5c-9 0 -14 3 -14 8c3 10 5 11 10 16c35 15 70 30 96 44l78 43 c96 57 162 136 197 258c9 33 17 60 22 100c3 22 5 35 6 39c-7 69 -16 115 -23 140s-4 22 -16 40c-8 12 -19 23 -31 34c-24 21 -62 44 -118 44c-48 0 -84 -8 -113 -28c-28 -19 -42 -44 -42 -73v-16c2 -5 3 -9 4 -11c24 22 52 39 84 39z" />
      </g>
      <g id="E520-s1idic30">
         <path transform="scale(1,-1)" d="M23 124h-23c22 43 43 76 62 101s45 37 76 38c6 0 12 -4 18 -13c7 -7 10 -16 10 -27l24 14l25 13c12 5 24 7 37 7c24 0 43 -9 58 -28s22 -44 23 -77c0 -14 -1 -27 -3 -38s-5 -21 -10 -29s-11 -17 -19 -27c-14 -18 -30 -32 -47 -42s-35 -15 -54 -15c-9 0 -20 3 -33 10 c-5 3 -10 7 -15 10s-9 8 -13 14l-56 -158l-3 -4c3 -7 7 -10 12 -11h32v-29h-173v29h21c4 0 9 2 14 5c4 4 7 9 9 14l119 331v6l-3 10l-6 3c-9 0 -17 -4 -25 -12s-16 -18 -23 -31l-11 -17l-10 -20zM197 201c-12 -21 -22 -45 -29 -72c-7 -30 -10 -51 -10 -62 c0 -24 7 -36 22 -36c13 0 23 2 31 7s15 11 21 20c10 17 15 26 16 28c5 11 8 26 10 44s3 31 4 39c0 7 -1 13 -2 18s-3 9 -6 14c-5 9 -15 14 -28 14c-14 0 -24 -5 -29 -14z" />
      </g>
      <g id="E0A3-s1idic30">
         <path transform="scale(1,-1)" d="M278 64c0 22 -17 39 -43 39c-12 0 -26 -3 -41 -10c-85 -43 -165 -94 -165 -156c5 -25 15 -32 49 -32c67 11 200 95 200 159zM0 -36c0 68 73 174 200 174c66 0 114 -39 114 -97c0 -84 -106 -173 -218 -173c-64 0 -96 32 -96 96z" />
      </g>
      <g id="E262-s1idic30">
         <path transform="scale(1,-1)" d="M136 186v169h17v-164l44 14v-91l-44 -14v-165l44 12v-91l-44 -13v-155h-17v150l-76 -22v-155h-17v149l-43 -13v90l43 14v167l-43 -14v92l43 13v169h17v-163zM60 73v-167l76 22v168z" />
      </g>
      <g id="E0A2-s1idic30">
         <path transform="scale(1,-1)" d="M198 133c102 0 207 -45 207 -133c0 -92 -118 -133 -227 -133c-101 0 -178 46 -178 133c0 88 93 133 198 133zM293 -21c0 14 -3 29 -8 44c-7 20 -18 38 -33 54c-20 21 -43 31 -68 31l-20 -2c-15 -5 -27 -14 -36 -28c-4 -9 -6 -17 -8 -24s-3 -16 -3 -27c0 -15 3 -34 9 -57 s18 -41 34 -55c15 -15 36 -23 62 -23c4 0 10 1 18 2c19 5 32 15 40 30s13 34 13 55z" />
      </g>
      <g id="E534-s1idic30">
         <path transform="scale(1,-1)" d="M432 1c-22 0 -50 18 -61 34l-56 -158l-3 -4c3 -7 7 -10 12 -11h32v-29h-173v29h21c4 0 9 2 14 5c4 4 7 9 9 14l119 331v6l-3 10l-6 3c-23 0 -38 -25 -48 -43l-11 -17c-8 -15 -15 -31 -23 -47h-23c22 43 43 76 62 101s45 37 76 38c14 0 28 -23 28 -40l24 14l25 13 c12 5 24 7 37 7c54 0 80 -48 81 -105c0 -47 -11 -68 -32 -94c-23 -29 -55 -57 -101 -57zM494 169c0 26 -10 46 -36 46c-14 0 -24 -5 -29 -14c-12 -21 -22 -45 -29 -72c-7 -30 -10 -51 -10 -62c0 -24 7 -36 22 -36c27 0 41 11 52 27c20 33 22 32 26 72c2 18 3 31 4 39z M-94 -69c21 0 35 -31 35 -51s-13 -32 -21 -45c-5 -7 -8 -12 -11 -14c-6 -7 -1 -10 9 -11c35 0 54 55 67 89c7 18 12 35 15 52c21 88 39 179 58 269h-58v38h70c13 38 23 65 40 91c21 30 42 53 65 69s48 24 75 24c28 0 46 -14 51 -38l4 -16c0 -33 -1 -36 -13 -60 c-3 -7 -17 -25 -31 -27c-5 -1 -10 -1 -17 0c-13 3 -17 18 -19 31c0 27 11 44 29 56l14 10c0 9 -6 14 -18 16h-6c-11 0 -20 -2 -28 -8c-9 -7 -19 -21 -29 -43c-7 -18 -26 -84 -31 -103h77v-40h-85c-19 -109 -60 -255 -103 -337c-24 -46 -64 -106 -117 -106 c-45 0 -71 37 -71 83c0 32 15 71 49 71z" />
      </g>
   </defs>
   <style type="text/css">#s1idic30 g.ending, #s1idic30 g.fing, #s1idic30 g.reh, #s1idic30 g.tempo {font-weight:bold;}#s1idic30 g.dir, #s1idic30 g.dynam, #s1idic30 g.mNum {font-style:italic;}#s1idic30 g.label {font-weight:normal;}#s1idic30 ellipse, #s1idic30 path, #s1idic30 polygon, #s1idic30 polyline, #s1idic30 rect {stroke:currentColor}#s1idic30 g.cursor {fill:dodgerblue; color:dodgerblue;}#s1idic30 g.cursor.chord {fill:limegreen; color:limegreen;}</style>
   <svg class="definition-scale" color="black" font-family="Times, serif" viewBox="0 0 13990 8030">
      <g class="page-margin" transform="translate(140, 120)">
         <g id="cm8y2d1" class="mdiv pageMilestone" />
         <g id="d1vr8ndd" class="score pageMilestone" />
         <g id="fx6ysgw" class="system">
            <path d="M2273 1059 L2273 7179" stroke-width="27" />
            <g id="cpt9ybq" class="label">
               <text x="2080" y="1509" text-anchor="end" font-size="0px">
                  <tspan id="dju94wy" class="text">
                     <tspan font-size="405px">Violin 1</tspan>
                  </tspan>
               </text>
            </g>
            <g id="x1hzuii8" class="label">
               <text x="2080" y="3309" text-anchor="end" font-size="0px">
                  <tspan id="y17s6l2v" class="text">
                     <tspan font-size="405px">Violin 2</tspan>
                  </tspan>
               </text>
            </g>
            <g id="s1swosmx" class="label">
               <text x="2080" y="5109" text-anchor="end" font-size="0px">
                  <tspan id="tg8sa02" class="text">
                     <tspan font-size="405px">Viola</tspan>
                  </tspan>
               </text>
            </g>
            <g id="np8wtqf" class="label">
               <text x="2080" y="6909" text-anchor="end" font-size="0px">
                  <tspan id="o1u3xudh" class="text">
                     <tspan font-size="405px">Violoncello</tspan>
                  </tspan>
               </text>
            </g>
            <g id="f1vznbu6" class="section systemMilestone" />
            <g id="z903m9" class="section systemMilestone" />
            <g id="a1f9mxnq" class="measure">
               <g id="j16bh7n0" class="staff">
                  <path d="M2260 1059 L6611 1059" stroke-width="13" />
                  <path d="M2260 1239 L6611 1239" stroke-width="13" />
                  <path d="M2260 1419 L6611 1419" stroke-width="13" />
                  <path d="M2260 1599 L6611 1599" stroke-width="13" />
                  <path d="M2260 1779 L6611 1779" stroke-width="13" />
                  <g id="q2vm95f" class="clef">
                     <use xlink:href="#E050-s1idic30" transform="translate(2377, 1599) scale(0.72, 0.72)" />
                  </g>
                  <g id="ro7b8zy" class="keySig" />
                  <g id="s13h1t4" class="meterSig">
                     <use xlink:href="#E08B-s1idic30" transform="translate(3058, 1419) scale(0.72, 0.72)" />
                  </g>
                  <g class="ledgerLines above">
                     <path d="M4960 879 L5282 879" stroke-width="22" />
                     <path d="M4960 699 L5282 699" stroke-width="22" />
                  </g>
                  <g id="kivm1fs" class="layer">
                     <g id="l1rhmedd" class="rest">
                        <use xlink:href="#E4E5-s1idic30" transform="translate(3628, 1419) scale(0.72, 0.72)" />
                     </g>
                     <g id="m9rl0f9" class="rest">
                        <use xlink:href="#E4E5-s1idic30" transform="translate(4318, 1419) scale(0.72, 0.72)" />
                     </g>
                     <g id="qkbeeud" class="note">
                        <g class="notehead">
                           <use xlink:href="#E0A4-s1idic30" transform="translate(5008, 699) scale(0.72, 0.72)" />
                        </g>
                        <g id="lykheiu" class="stem">
                           <path d="M5017 727 L5017 1419" stroke-width="18" />
                        </g>
                     </g>
                  </g>
               </g>
               <g id="c1iuhaxl" class="staff">
                  <path d="M2260 2859 L6611 2859" stroke-width="13" />
                  <path d="M2260 3039 L6611 3039" stroke-width="13" />
                  <path d="M2260 3219 L6611 3219" stroke-width="13" />
                  <path d="M2260 3399 L6611 3399" stroke-width="13" />
                  <path d="M2260 3579 L6611 3579" stroke-width="13" />
                  <g id="tjgpbxe" class="clef">
                     <use xlink:href="#E050-s1idic30" transform="translate(2377, 3399) scale(0.72, 0.72)" />
                  </g>
                  <g id="u15mfcs1" class="keySig" />
                  <g id="v1c8wr8p" class="meterSig">
                     <use xlink:href="#E08B-s1idic30" transform="translate(3058, 3219) scale(0.72, 0.72)" />
                  </g>
                  <g id="d1iyr7f7" class="layer">
                     <g id="e14m2knm" class="rest">
                        <use xlink:href="#E4E5-s1idic30" transform="translate(3628, 3219) scale(0.72, 0.72)" />
                     </g>
                     <g id="f1t8hjf5" class="rest">
                        <use xlink:href="#E4E5-s1idic30" transform="translate(4318, 3219) scale(0.72, 0.72)" />
                     </g>
                     <g id="j5sxrsk" class="note">
                        <g class="notehead">
                           <use xlink:href="#E0A4-s1idic30" transform="translate(5008, 3129) scale(0.72, 0.72)" />
                        </g>
                        <g id="m1tvqovi" class="stem">
                           <path d="M5017 3157 L5017 3759" stroke-width="18" />
                        </g>
                     </g>
                  </g>
               </g>
               <g id="v1qefdtv" class="staff">
                  <path d="M2260 4659 L6611 4659" stroke-width="13" />
                  <path d="M2260 4839 L6611 4839" stroke-width="13" />
                  <path d="M2260 5019 L6611 5019" stroke-width="13" />
                  <path d="M2260 5199 L6611 5199" stroke-width="13" />
                  <path d="M2260 5379 L6611 5379" stroke-width="13" />
                  <g id="w1rysvlz" class="clef">
                     <use xlink:href="#E05C-s1idic30" transform="translate(2377, 5019) scale(0.72, 0.72)" />
                  </g>
                  <g id="x19ie2t6" class="keySig" />
                  <g id="y1wxzsk1" class="meterSig">
                     <use xlink:href="#E08B-s1idic30" transform="translate(3058, 5019) scale(0.72, 0.72)" />
                  </g>
                  <g id="z1g036zx" class="layer">
                     <g id="ay0cdpv" class="note">
                        <g class="notehead">
                           <use xlink:href="#E0A4-s1idic30" transform="translate(3628, 5019) scale(0.72, 0.72)" />
                        </g>
                        <g id="nenu3pl" class="stem">
                           <path d="M3637 5047 L3637 5619" stroke-width="18" />
                        </g>
                     </g>
                     <g id="c90wboy" class="note">
                        <g class="notehead">
                           <use xlink:href="#E0A4-s1idic30" transform="translate(4318, 5109) scale(0.72, 0.72)" />
                        </g>
                        <g id="o9q1zwj" class="stem">
                           <path d="M4535 5081 L4535 4479" stroke-width="18" />
                        </g>
                        <g id="duwfdg" class="accid" />
                     </g>
                     <g id="e130pui5" class="note">
                        <g class="notehead">
                           <use xlink:href="#E0A4-s1idic30" transform="translate(5008, 5199) scale(0.72, 0.72)" />
                        </g>
                        <g id="pefm9x1" class="stem">
                           <path d="M5225 5171 L5225 4569" stroke-width="18" />
                        </g>
                        <g id="f1xdsosr" class="accid" />
                     </g>
                  </g>
               </g>
               <g id="n55oza4" class="staff">
                  <path d="M2260 6459 L6611 6459" stroke-width="13" />
                  <path d="M2260 6639 L6611 6639" stroke-width="13" />
                  <path d="M2260 6819 L6611 6819" stroke-width="13" />
                  <path d="M2260 6999 L6611 6999" stroke-width="13" />
                  <path d="M2260 7179 L6611 7179" stroke-width="13" />
                  <g id="z14kmc3r" class="clef">
                     <use xlink:href="#E062-s1idic30" transform="translate(2377, 6639) scale(0.72, 0.72)" />
                  </g>
                  <g id="a16fjftj" class="keySig" />
                  <g id="b28p90d" class="meterSig">
                     <use xlink:href="#E08B-s1idic30" transform="translate(3058, 6819) scale(0.72, 0.72)" />
                  </g>
                  <g id="r5h8woj" class="layer">
                     <g id="s155psbk" class="note">
                        <g class="notehead">
                           <use xlink:href="#E0A4-s1idic30" transform="translate(3628, 6909) scale(0.72, 0.72)" />
                        </g>
                        <g id="qbmc96e" class="stem">
                           <path d="M3845 6881 L3845 6279" stroke-width="18" />
                        </g>
                     </g>
                     <g id="u1465mmj" class="note">
                        <g class="notehead">
                           <use xlink:href="#E0A4-s1idic30" transform="translate(4318, 6999) scale(0.72, 0.72)" />
                        </g>
                        <g id="ro3nwfx" class="stem">
                           <path d="M4535 6971 L4535 6369" stroke-width="18" />
                        </g>
                        <g id="v1h1995s" class="accid" />
                     </g>
                     <g id="w11n59b" class="note">
                        <g class="notehead">
                           <use xlink:href="#E0A4-s1idic30" transform="translate(5008, 7089) scale(0.72, 0.72)" />
                        </g>
                        <g id="sqsyehh" class="stem">
                           <path d="M5225 7061 L5225 6459" stroke-width="18" />
                        </g>
                        <g id="x1s55e9k" class="accid" />
                     </g>
                  </g>
               </g>
               <g id="nr0k9g4" class="dynam">
                  <use xlink:href="#E520-s1idic30" transform="translate(5803, 2013) scale(0.72, 0.72)" />
               </g>
               <g id="pkfotz7" class="hairpin">
                  <polyline stroke-width="18" stroke-linecap="square" stroke-linejoin="miter" fill="none" points="6418,2014 6088,1968 6418,1922 " />
               </g>
               <g id="r1iadkz6" class="slur">
                  <path d="M5121,497 C6249,-8 7433,-129 8642,139 C7430,-70 6264,51 5121,497" stroke-width="9" stroke-linecap="round" stroke-linejoin="round" />
               </g>
               <g id="gmhhbg0" class="dynam">
                  <use xlink:href="#E520-s1idic30" transform="translate(5803, 3813) scale(0.72, 0.72)" />
               </g>
               <g id="i1homqm6" class="hairpin">
                  <polyline stroke-width="18" stroke-linecap="square" stroke-linejoin="miter" fill="none" points="6418,3913 6088,3867 6418,3821 " />
               </g>
               <g id="k1j7nmk4" class="slur">
                  <path d="M5121,2926 C6249,2419 7433,2298 8642,2566 C7430,2357 6264,2478 5121,2926" stroke-width="9" stroke-linecap="round" stroke-linejoin="round" />
               </g>
               <g id="wts0r6b" class="dynam">
                  <use xlink:href="#E520-s1idic30" transform="translate(3628, 5862) scale(0.72, 0.72)" />
               </g>
               <g id="yu32kgq" class="hairpin">
                  <polyline stroke-width="18" stroke-linecap="square" stroke-linejoin="miter" fill="none" points="6418,5703 3913,5568 6418,5433 " />
               </g>
               <g id="b1b06syj" class="slur">
                  <path d="M3741,4816 C4032,4370 4779,4169 5214,4456 C4770,4231 4068,4422 3741,4816" stroke-width="9" stroke-linecap="round" stroke-linejoin="round" />
               </g>
               <g id="o1ny64oj" class="dynam">
                  <use xlink:href="#E520-s1idic30" transform="translate(3628, 7637) scale(0.72, 0.72)" />
               </g>
               <g id="q50g6f3" class="hairpin">
                  <polyline stroke-width="18" stroke-linecap="square" stroke-linejoin="miter" fill="none" points="6418,7757 3913,7622 6418,7487 " />
               </g>
               <g id="tcapkyx" class="slur">
                  <path d="M3741,7111 C4058,7394 4738,7482 5119,7289 C4751,7543 4031,7449 3741,7111" stroke-width="9" stroke-linecap="round" stroke-linejoin="round" />
               </g>
               <g id="i13qg0vm" class="barLine">
                  <path d="M6598 1059 L6598 1779" stroke-width="27" />
                  <path d="M6598 2859 L6598 3579" stroke-width="27" />
                  <path d="M6598 4659 L6598 5379" stroke-width="27" />
                  <path d="M6598 6459 L6598 7179" stroke-width="27" />
               </g>
            </g>
            <g id="swfrqrk" class="measure">
               <g id="bh7rxgd" class="staff">
                  <path d="M6611 1059 L10364 1059" stroke-width="13" />
                  <path d="M6611 1239 L10364 1239" stroke-width="13" />
                  <path d="M6611 1419 L10364 1419" stroke-width="13" />
                  <path d="M6611 1599 L10364 1599" stroke-width="13" />
                  <path d="M6611 1779 L10364 1779" stroke-width="13" />
                  <g class="ledgerLines above">
                     <path d="M6743 879 L7065 879" stroke-width="22" />
                     <path d="M7793 879 L8115 879" stroke-width="22" />
                     <path d="M8483 879 L8805 879" stroke-width="22" />
                     <path d="M6743 699 L7065 699" stroke-width="22" />
                     <path d="M7793 699 L8115 699" stroke-width="22" />
                     <path d="M8483 699 L8805 699" stroke-width="22" />
                     <path d="M6743 519 L7065 519" stroke-width="22" />
                     <path d="M7793 519 L8115 519" stroke-width="22" />
                     <path d="M8483 519 L8805 519" stroke-width="22" />
                     <path d="M6743 339 L7065 339" stroke-width="22" />
                     <path d="M8483 339 L8805 339" stroke-width="22" />
                  </g>
                  <g id="ff16k2m" class="layer">
                     <g id="gb78p6q" class="note">
                        <g class="notehead">
                           <use xlink:href="#E0A3-s1idic30" transform="translate(6791, 339) scale(0.72, 0.72)" />
                        </g>
                        <g id="t1p6irjd" class="stem">
                           <path d="M6800 364 L6800 1419" stroke-width="18" />
                        </g>
                     </g>
                     <g id="hrj3pak" class="note">
                        <g class="notehead">
                           <use xlink:href="#E0A4-s1idic30" transform="translate(7841, 429) scale(0.72, 0.72)" />
                        </g>
                        <g id="uxwha55" class="stem">
                           <path d="M7850 457 L7850 1419" stroke-width="18" />
                        </g>
                        <g id="i1qmt3cf" class="accid">
                           <use xlink:href="#E262-s1idic30" transform="translate(7629, 429) scale(0.72, 0.72)" />
                        </g>
                     </g>
                     <g id="je8n48w" class="note">
                        <g class="notehead">
                           <use xlink:href="#E0A4-s1idic30" transform="translate(8531, 339) scale(0.72, 0.72)" />
                        </g>
                        <g id="v160gkcx" class="stem">
                           <path d="M8540 367 L8540 1419" stroke-width="18" />
                        </g>
                     </g>
                  </g>
               </g>
               <g id="ua6sqs3" class="staff">
                  <path d="M6611 2859 L10364 2859" stroke-width="13" />
                  <path d="M6611 3039 L10364 3039" stroke-width="13" />
                  <path d="M6611 3219 L10364 3219" stroke-width="13" />
                  <path d="M6611 3399 L10364 3399" stroke-width="13" />
                  <path d="M6611 3579 L10364 3579" stroke-width="13" />
                  <g id="y10opinn" class="layer">
                     <g id="z6uxtj0" class="note">
                        <g class="notehead">
                           <use xlink:href="#E0A3-s1idic30" transform="translate(6791, 2769) scale(0.72, 0.72)" />
                        </g>
                        <g id="wwl8777" class="stem">
                           <path d="M6800 2794 L6800 3399" stroke-width="18" />
                        </g>
                     </g>
                     <g id="alfxxxv" class="note">
                        <g class="notehead">
                           <use xlink:href="#E0A4-s1idic30" transform="translate(7841, 2859) scale(0.72, 0.72)" />
                        </g>
                        <g id="xv6hsm" class="stem">
                           <path d="M7850 2887 L7850 3489" stroke-width="18" />
                        </g>
                        <g id="b1b08hkf" class="accid">
                           <use xlink:href="#E262-s1idic30" transform="translate(7655, 2859) scale(0.72, 0.72)" />
                        </g>
                     </g>
                     <g id="c1r1ctf7" class="note">
                        <g class="notehead">
                           <use xlink:href="#E0A4-s1idic30" transform="translate(8531, 2769) scale(0.72, 0.72)" />
                        </g>
                        <g id="yv8fxac" class="stem">
                           <path d="M8540 2797 L8540 3399" stroke-width="18" />
                        </g>
                     </g>
                  </g>
               </g>
               <g id="pollhnb" class="staff">
                  <path d="M6611 4659 L10364 4659" stroke-width="13" />
                  <path d="M6611 4839 L10364 4839" stroke-width="13" />
                  <path d="M6611 5019 L10364 5019" stroke-width="13" />
                  <path d="M6611 5199 L10364 5199" stroke-width="13" />
                  <path d="M6611 5379 L10364 5379" stroke-width="13" />
                  <g id="s1xucf3p" class="layer">
                     <g id="t4yy4zv" class="note">
                        <g class="notehead">
                           <use xlink:href="#E0A2-s1idic30" transform="translate(6791, 5289) scale(0.72, 0.72)" />
                        </g>
                     </g>
                  </g>
               </g>
               <g id="h1kk9v8d" class="staff">
                  <path d="M6611 6459 L10364 6459" stroke-width="13" />
                  <path d="M6611 6639 L10364 6639" stroke-width="13" />
                  <path d="M6611 6819 L10364 6819" stroke-width="13" />
                  <path d="M6611 6999 L10364 6999" stroke-width="13" />
                  <path d="M6611 7179 L10364 7179" stroke-width="13" />
                  <g id="kerajcu" class="layer">
                     <g id="l1nx52z7" class="note">
                        <g class="notehead">
                           <use xlink:href="#E0A2-s1idic30" transform="translate(6791, 7179) scale(0.72, 0.72)" />
                        </g>
                     </g>
                  </g>
               </g>
               <g id="c43nebd" class="dynam">
                  <use xlink:href="#E534-s1idic30" transform="translate(6791, 2142) scale(0.72, 0.72)" />
               </g>
               <g id="eethm0c" class="hairpin">
                  <polyline stroke-width="18" stroke-linecap="square" stroke-linejoin="miter" fill="none" points="10171,2103 7243,1968 10171,1833 " />
               </g>
               <g id="v1bxv60i" class="dynam">
                  <use xlink:href="#E534-s1idic30" transform="translate(6791, 3942) scale(0.72, 0.72)" />
               </g>
               <g id="xv3bj0a" class="hairpin">
                  <polyline stroke-width="18" stroke-linecap="square" stroke-linejoin="miter" fill="none" points="10171,4002 7243,3867 10171,3732 " />
               </g>
               <g id="q9vqy7i" class="dynam">
                  <use xlink:href="#E534-s1idic30" transform="translate(6791, 5862) scale(0.72, 0.72)" />
               </g>
               <g id="u1ysxloo" class="tie">
                  <path d="M7126,5334 C7970,5439 9653,5439 10499,5334 C9656,5487 7967,5487 7126,5334" stroke-width="9" stroke-linecap="round" stroke-linejoin="round" />
               </g>
               <g id="iryq5j1" class="dynam">
                  <use xlink:href="#E534-s1idic30" transform="translate(6791, 7637) scale(0.72, 0.72)" />
               </g>
               <g id="m1vvcfph" class="tie">
                  <path d="M7126,7224 C7970,7329 9653,7329 10499,7224 C9656,7377 7967,7377 7126,7224" stroke-width="9" stroke-linecap="round" stroke-linejoin="round" />
               </g>
               <g id="a1c137py" class="barLine">
                  <path d="M10351 1059 L10351 1779" stroke-width="27" />
                  <path d="M10351 2859 L10351 3579" stroke-width="27" />
                  <path d="M10351 4659 L10351 5379" stroke-width="27" />
                  <path d="M10351 6459 L10351 7179" stroke-width="27" />
               </g>
            </g>
            <g id="k1p4ep3j" class="measure">
               <g id="t16xzbbp" class="staff">
                  <path d="M10364 1059 L13717 1059" stroke-width="13" />
                  <path d="M10364 1239 L13717 1239" stroke-width="13" />
                  <path d="M10364 1419 L13717 1419" stroke-width="13" />
                  <path d="M10364 1599 L13717 1599" stroke-width="13" />
                  <path d="M10364 1779 L13717 1779" stroke-width="13" />
                  <g class="ledgerLines above">
                     <path d="M10496 879 L10818 879" stroke-width="22" />
                     <path d="M11836 879 L12158 879" stroke-width="22" />
                     <path d="M10496 699 L10818 699" stroke-width="22" />
                     <path d="M11836 699 L12158 699" stroke-width="22" />
                     <path d="M10496 519 L10818 519" stroke-width="22" />
                  </g>
                  <g id="v1lwb34r" class="layer">
                     <g id="w7u5lm1" class="note">
                        <g class="notehead">
                           <use xlink:href="#E0A3-s1idic30" transform="translate(10544, 519) scale(0.72, 0.72)" />
                        </g>
                        <g id="cswu7ku" class="dots">
                           <ellipse cx="10860" cy="429" rx="36" ry="36" />
                        </g>
                        <g id="ba0rxyc" class="stem">
                           <path d="M10553 544 L10553 1419" stroke-width="18" />
                        </g>
                        <g id="x151pf1d" class="accid" />
                     </g>
                     <g id="zxnedye" class="note">
                        <g class="notehead">
                           <use xlink:href="#E0A4-s1idic30" transform="translate(11884, 609) scale(0.72, 0.72)" />
                        </g>
                        <g id="dwl0ssz" class="stem">
                           <path d="M11893 637 L11893 1419" stroke-width="18" />
                        </g>
                     </g>
                  </g>
               </g>
               <g id="m1rdx3nx" class="staff">
                  <path d="M10364 2859 L13717 2859" stroke-width="13" />
                  <path d="M10364 3039 L13717 3039" stroke-width="13" />
                  <path d="M10364 3219 L13717 3219" stroke-width="13" />
                  <path d="M10364 3399 L13717 3399" stroke-width="13" />
                  <path d="M10364 3579 L13717 3579" stroke-width="13" />
                  <g id="o32jquw" class="layer">
                     <g id="pphn7ws" class="note">
                        <g class="notehead">
                           <use xlink:href="#E0A3-s1idic30" transform="translate(10544, 2949) scale(0.72, 0.72)" />
                        </g>
                        <g id="f1cdp9jz" class="dots">
                           <ellipse cx="10860" cy="2949" rx="36" ry="36" />
                        </g>
                        <g id="e1iu18t6" class="stem">
                           <path d="M10553 2974 L10553 3579" stroke-width="18" />
                        </g>
                        <g id="qtrsbyh" class="accid" />
                     </g>
                     <g id="soubmag" class="note">
                        <g class="notehead">
                           <use xlink:href="#E0A4-s1idic30" transform="translate(11884, 3039) scale(0.72, 0.72)" />
                        </g>
                        <g id="gge14xg" class="stem">
                           <path d="M11893 3067 L11893 3669" stroke-width="18" />
                        </g>
                     </g>
                  </g>
               </g>
               <g id="epa2aaw" class="staff">
                  <path d="M10364 4659 L13717 4659" stroke-width="13" />
                  <path d="M10364 4839 L13717 4839" stroke-width="13" />
                  <path d="M10364 5019 L13717 5019" stroke-width="13" />
                  <path d="M10364 5199 L13717 5199" stroke-width="13" />
                  <path d="M10364 5379 L13717 5379" stroke-width="13" />
                  <g id="f1gtaacq" class="layer">
                     <g id="g1xg8adn" class="note">
                        <g class="notehead">
                           <use xlink:href="#E0A3-s1idic30" transform="translate(10544, 5289) scale(0.72, 0.72)" />
                        </g>
                        <g id="i1330c51" class="dots">
                           <ellipse cx="10860" cy="5289" rx="36" ry="36" />
                        </g>
                        <g id="h1gjcmzr" class="stem">
                           <path d="M10761 5261 L10761 4659" stroke-width="18" />
                        </g>
                     </g>
                     <g id="i1fcsbta" class="chord">
                        <g id="jtc424w" class="stem">
                           <path d="M12101 5261 L12101 4359" stroke-width="18" />
                        </g>
                        <g id="h1uv77wq" class="note">
                           <g class="notehead">
                              <use xlink:href="#E0A4-s1idic30" transform="translate(11884, 5289) scale(0.72, 0.72)" />
                           </g>
                        </g>
                        <g id="ky98rwe" class="note">
                           <g class="notehead">
                              <use xlink:href="#E0A4-s1idic30" transform="translate(11884, 4929) scale(0.72, 0.72)" />
                           </g>
                        </g>
                     </g>
                  </g>
               </g>
               <g id="w421dhx" class="staff">
                  <path d="M10364 6459 L13717 6459" stroke-width="13" />
                  <path d="M10364 6639 L13717 6639" stroke-width="13" />
                  <path d="M10364 6819 L13717 6819" stroke-width="13" />
                  <path d="M10364 6999 L13717 6999" stroke-width="13" />
                  <path d="M10364 7179 L13717 7179" stroke-width="13" />
                  <g id="x1m5si2d" class="layer">
                     <g id="yc6f706" class="note">
                        <g class="notehead">
                           <use xlink:href="#E0A2-s1idic30" transform="translate(10544, 7179) scale(0.72, 0.72)" />
                        </g>
                     </g>
                  </g>
               </g>
               <g id="u1qgrus3" class="hairpin">
                  <polyline stroke-width="18" stroke-linecap="square" stroke-linejoin="miter" fill="none" points="10544,2103 13524,1968 10544,1833 " />
               </g>
               <g id="y5njlwx" class="slur">
                  <path d="M10657,317 C10991,43 11699,90 11995,407 C11673,150 11008,105 10657,317" stroke-width="9" stroke-linecap="round" stroke-linejoin="round" />
               </g>
               <g id="ndq4rrd" class="hairpin">
                  <polyline stroke-width="18" stroke-linecap="square" stroke-linejoin="miter" fill="none" points="10544,4002 13524,3867 10544,3732 " />
               </g>
               <g id="r1xsdzua" class="slur">
                  <path d="M10657,2746 C10991,2470 11699,2517 11995,2834 C11674,2575 11008,2530 10657,2746" stroke-width="9" stroke-linecap="round" stroke-linejoin="round" />
               </g>
               <g id="j1cpluh4" class="slur" />
               <g id="s1xhyglu" class="barLine">
                  <path d="M13704 1059 L13704 1779" stroke-width="27" />
                  <path d="M13704 2859 L13704 3579" stroke-width="27" />
                  <path d="M13704 4659 L13704 5379" stroke-width="27" />
                  <path d="M13704 6459 L13704 7179" stroke-width="27" />
               </g>
            </g>
            <g id="imkbtx8" class="systemMilestoneEnd z903m9" />
            <g id="j173k7w5" class="systemMilestoneEnd f1vznbu6" />
         </g>
         <g id="k1351wpq" class="pageMilestoneEnd d1vr8ndd" />
         <g id="l6gh3wb" class="pageMilestoneEnd cm8y2d1" />
      </g>
   </svg>
</svg>
