<svg viewBox="0 0 710 437" version="1.1" xmlns="http://www.w3.org/2000/svg" xmlns:xlink="http://www.w3.org/1999/xlink" overflow="visible" id="q1xe34ax">
   <desc>Engraved by Verovio 6.3.0-425dd7b</desc>
   <defs>
      <g id="E050-q1xe34ax">
         <path transform="scale(1,-1)" d="M441 -245c-23 -4 -48 -6 -76 -6c-59 0 -102 7 -130 20c-88 42 -150 93 -187 154c-26 44 -43 103 -48 176c0 6 -1 13 -1 19c0 54 15 111 45 170c29 57 65 106 110 148s96 85 153 127c-3 16 -8 46 -13 92c-4 43 -5 73 -5 89c0 117 16 172 69 257c34 54 64 82 89 82 c21 0 43 -30 69 -92s39 -115 41 -159v-15c0 -109 -21 -162 -67 -241c-13 -20 -63 -90 -98 -118c-13 -9 -25 -19 -37 -29l31 -181c8 1 18 2 28 2c58 0 102 -12 133 -35c59 -43 92 -104 98 -184c1 -7 1 -15 1 -22c0 -123 -87 -209 -181 -248c8 -57 17 -110 25 -162 c5 -31 6 -58 6 -80c0 -30 -5 -53 -14 -70c-35 -64 -88 -99 -158 -103c-5 0 -11 -1 -16 -1c-37 0 -72 10 -108 27c-50 24 -77 59 -80 105v11c0 29 7 55 20 76c18 28 45 42 79 44h6c49 0 93 -42 97 -87v-9c0 -51 -34 -86 -105 -106c17 -24 51 -36 102 -36c62 0 116 43 140 85 c9 16 13 41 13 74c0 20 -1 42 -5 67c-8 53 -18 106 -26 159zM461 939c-95 0 -135 -175 -135 -286c0 -24 2 -48 5 -71c50 39 92 82 127 128c40 53 60 100 60 140v8c-4 53 -22 81 -55 81h-2zM406 119l54 -326c73 25 110 78 110 161c0 7 0 15 -1 23c-7 95 -57 142 -151 142h-12 zM382 117c-72 -2 -128 -47 -128 -120v-7c2 -46 43 -99 75 -115c-3 -2 -7 -5 -10 -10c-70 33 -116 88 -123 172v11c0 68 44 126 88 159c23 17 49 29 78 36l-29 170c-21 -13 -52 -37 -92 -73c-50 -44 -86 -84 -109 -119c-45 -69 -67 -130 -67 -182v-13c5 -68 35 -127 93 -176 s125 -73 203 -73c25 0 50 3 75 9c-19 111 -36 221 -54 331z" />
      </g>
      <g id="E08A-q1xe34ax">
         <path transform="scale(1,-1)" d="M340 179c-9 24 -56 41 -89 41c-46 0 -81 -28 -100 -58c-17 -28 -25 -78 -25 -150c0 -65 2 -111 8 -135c8 -31 18 -49 40 -67c20 -17 43 -25 70 -25c54 0 92 36 115 75c14 25 23 54 28 88h27c0 -63 -24 -105 -58 -141c-35 -38 -82 -56 -140 -56c-45 0 -83 13 -115 39 c-57 45 -101 130 -101 226c0 59 33 127 68 163c36 37 97 72 160 72c36 0 93 -21 121 -40c11 -8 23 -17 33 -30c19 -23 27 -48 27 -76c0 -51 -35 -88 -86 -88c-43 0 -76 27 -76 68c0 26 7 35 21 51c15 17 32 27 58 32c7 2 14 7 14 11z" />
      </g>
      <g id="E4E3-q1xe34ax">
         <path transform="scale(1,-1)" d="M0 -115v105c0 9 1 10 10 10h280c9 0 10 -1 10 -10v-105c0 -9 -1 -10 -10 -10h-280c-9 0 -10 1 -10 10z" />
      </g>
      <g id="E4E4-q1xe34ax">
         <path transform="scale(1,-1)" d="M0 10v105c0 9 1 10 10 10h280c9 0 10 -1 10 -10v-105c0 -9 -1 -10 -10 -10h-280c-9 0 -10 1 -10 10z" />
      </g>
      <g id="E4E5-q1xe34ax">
         <path transform="scale(1,-1)" d="M107 292c-13 24 -30 49 -52 71c-1 1 0 2 0 3l-2 2c3 3 4 4 6 4c12 0 26 -7 40 -20s44 -40 89 -81c26 -24 28 -29 46 -47c4 -4 8 -9 10 -14c6 -8 8 -16 8 -27c0 -19 -12 -40 -36 -61c-28 -23 -49 -38 -61 -73c-4 -11 -7 -27 -10 -50c13 -43 34 -83 59 -121 c31 -47 59 -79 101 -129c-8 0 -26 7 -54 20l-62 29l-21 6l-23 1c-25 0 -45 -10 -60 -30l-4 -14l-1 -12c0 -33 20 -56 39 -78c8 -9 17 -18 26 -26c17 -15 27 -24 28 -30l-3 -3c-11 5 -19 10 -25 15c-9 3 -37 21 -45 26c-24 14 -45 32 -63 51c-19 21 -37 44 -37 71 c0 63 27 95 80 95c41 0 86 -18 136 -52c-19 26 -37 48 -55 66c-23 23 -48 44 -73 65c-28 23 -47 40 -58 53s-17 26 -18 39c75 64 113 125 113 183c0 27 -7 48 -18 68z" />
      </g>
      <g id="E0A4-q1xe34ax">
         <path transform="scale(1,-1)" d="M0 -39c0 68 73 172 200 172c66 0 114 -37 114 -95c0 -84 -106 -171 -218 -171c-64 0 -96 30 -96 94z" />
      </g>
      <g id="E262-q1xe34ax">
         <path transform="scale(1,-1)" d="M136 186v169h17v-164l44 14v-91l-44 -14v-165l44 12v-91l-44 -13v-155h-17v150l-76 -22v-155h-17v149l-43 -13v90l43 14v167l-43 -14v92l43 13v169h17v-163zM60 73v-167l76 22v168z" />
      </g>
      <g id="E0A3-q1xe34ax">
         <path transform="scale(1,-1)" d="M278 64c0 22 -17 39 -43 39c-12 0 -26 -3 -41 -10c-85 -43 -165 -94 -165 -156c5 -25 15 -32 49 -32c67 11 200 95 200 159zM0 -36c0 68 73 174 200 174c66 0 114 -39 114 -97c0 -84 -106 -173 -218 -173c-64 0 -96 32 -96 96z" />
      </g>
      <g id="E520-q1xe34ax">
         <path transform="scale(1,-1)" d="M23 124h-23c22 43 43 76 62 101s45 37 76 38c6 0 12 -4 18 -13c7 -7 10 -16 10 -27l24 14l25 13c12 5 24 7 37 7c24 0 43 -9 58 -28s22 -44 23 -77c0 -14 -1 -27 -3 -38s-5 -21 -10 -29s-11 -17 -19 -27c-14 -18 -30 -32 -47 -42s-35 -15 -54 -15c-9 0 -20 3 -33 10 c-5 3 -10 7 -15 10s-9 8 -13 14l-56 -158l-3 -4c3 -7 7 -10 12 -11h32v-29h-173v29h21c4 0 9 2 14 5c4 4 7 9 9 14l119 331v6l-3 10l-6 3c-9 0 -17 -4 -25 -12s-16 -18 -23 -31l-11 -17l-10 -20zM197 201c-12 -21 -22 -45 -29 -72c-7 -30 -10 -51 -10 -62 c0 -24 7 -36 22 -36c13 0 23 2 31 7s15 11 21 20c10 17 15 26 16 28c5 11 8 26 10 44s3 31 4 39c0 7 -1 13 -2 18s-3 9 -6 14c-5 9 -15 14 -28 14c-14 0 -24 -5 -29 -14z" />
      </g>
   </defs>
   <style type="text/css">#q1xe34ax g.ending, #q1xe34ax g.fing, #q1xe34ax g.reh, #q1xe34ax g.tempo {font-weight:bold;}#q1xe34ax g.dir, #q1xe34ax g.dynam, #q1xe34ax g.mNum {font-style:italic;}#q1xe34ax g.label {font-weight:normal;}#q1xe34ax ellipse, #q1xe34ax path, #q1xe34ax polygon, #q1xe34ax polyline, #q1xe34ax rect {stroke:currentColor}#q1xe34ax g.cursor {fill:dodgerblue; color:dodgerblue;}#q1xe34ax g.cursor.chord {fill:limegreen; color:limegreen;}</style>
   <svg class="definition-scale" color="black" font-family="Times, serif" viewBox="0 0 12900 7930">
      <g class="page-margin" transform="translate(140, 120)">
         <g id="a1pt68io" class="mdiv pageMilestone" />
         <g id="b16ti0io" class="score pageMilestone" />
         <g id="x2rshrg" class="system">
            <path d="M1530 1039 L1530 7159" stroke-width="27" />
            <g id="o1dwz5u2" class="label">
               <text x="1337" y="1489" text-anchor="end" font-size="0px">
                  <tspan id="pvffgvd" class="text">
                     <tspan font-size="405px">Flute 1</tspan>
                  </tspan>
               </text>
            </g>
            <g id="dpgnk4w" class="label">
               <text x="1337" y="3289" text-anchor="end" font-size="0px">
                  <tspan id="exj435u" class="text">
                     <tspan font-size="405px">Flute 2</tspan>
                  </tspan>
               </text>
            </g>
            <g id="s4kwp52" class="label">
               <text x="1337" y="5089" text-anchor="end" font-size="0px">
                  <tspan id="t1brsuni" class="text">
                     <tspan font-size="405px">Oboe 1</tspan>
                  </tspan>
               </text>
            </g>
            <g id="hfotjpq" class="label">
               <text x="1337" y="6889" text-anchor="end" font-size="0px">
                  <tspan id="izagq0t" class="text">
                     <tspan font-size="405px">Oboe 2</tspan>
                  </tspan>
               </text>
            </g>
            <g id="d1mgewxs" class="section systemMilestone" />
            <g id="r187ivc3" class="section systemMilestone" />
            <g id="v14ziw9x" class="measure">
               <g id="e1xi938z" class="mNum autogenerated">
                  <text x="1517" y="796" text-anchor="middle" font-size="0px">
                     <tspan id="fdluqv6" class="text">
                        <tspan font-size="324px">211</tspan>
                     </tspan>
                  </text>
               </g>
               <g id="ejxzz92" class="staff">
                  <path d="M1517 1039 L4360 1039" stroke-width="13" />
                  <path d="M1517 1219 L4360 1219" stroke-width="13" />
                  <path d="M1517 1399 L4360 1399" stroke-width="13" />
                  <path d="M1517 1579 L4360 1579" stroke-width="13" />
                  <path d="M1517 1759 L4360 1759" stroke-width="13" />
                  <g id="g1ygke2w" class="clef">
                     <use xlink:href="#E050-q1xe34ax" transform="translate(1634, 1579) scale(0.72, 0.72)" />
                  </g>
                  <g id="h1f7cx0i" class="keySig" />
                  <g id="ip13y4g" class="meterSig">
                     <use xlink:href="#E08A-q1xe34ax" transform="translate(2279, 1399) scale(0.72, 0.72)" />
                  </g>
                  <g id="f1hdt8an" class="layer">
                     <g id="gmtg93o" class="mRest">
                        <use xlink:href="#E4E3-q1xe34ax" transform="translate(3392, 1219) scale(0.72, 0.72)" />
                     </g>
                  </g>
               </g>
               <g id="hrali46" class="staff">
                  <path d="M1517 2839 L4360 2839" stroke-width="13" />
                  <path d="M1517 3019 L4360 3019" stroke-width="13" />
                  <path d="M1517 3199 L4360 3199" stroke-width="13" />
                  <path d="M1517 3379 L4360 3379" stroke-width="13" />
                  <path d="M1517 3559 L4360 3559" stroke-width="13" />
                  <g id="j1hcw4kr" class="clef">
                     <use xlink:href="#E050-q1xe34ax" transform="translate(1634, 3379) scale(0.72, 0.72)" />
                  </g>
                  <g id="k1wyq1fj" class="keySig" />
                  <g id="l4l3xik" class="meterSig">
                     <use xlink:href="#E08A-q1xe34ax" transform="translate(2279, 3199) scale(0.72, 0.72)" />
                  </g>
                  <g id="i1qd85u9" class="layer">
                     <g id="j1mwatcs" class="mRest">
                        <use xlink:href="#E4E3-q1xe34ax" transform="translate(3392, 3019) scale(0.72, 0.72)" />
                     </g>
                  </g>
               </g>
               <g id="k15yzsky" class="staff">
                  <path d="M1517 4639 L4360 4639" stroke-width="13" />
                  <path d="M1517 4819 L4360 4819" stroke-width="13" />
                  <path d="M1517 4999 L4360 4999" stroke-width="13" />
                  <path d="M1517 5179 L4360 5179" stroke-width="13" />
                  <path d="M1517 5359 L4360 5359" stroke-width="13" />
                  <g id="mnz3qpr" class="clef">
                     <use xlink:href="#E050-q1xe34ax" transform="translate(1634, 5179) scale(0.72, 0.72)" />
                  </g>
                  <g id="nw0e5rn" class="keySig" />
                  <g id="obuf9p6" class="meterSig">
                     <use xlink:href="#E08A-q1xe34ax" transform="translate(2279, 4999) scale(0.72, 0.72)" />
                  </g>
                  <g id="l1tjthws" class="layer">
                     <g id="m1tal47y" class="mRest">
                        <use xlink:href="#E4E3-q1xe34ax" transform="translate(3392, 4819) scale(0.72, 0.72)" />
                     </g>
                  </g>
               </g>
               <g id="nq3ef26" class="staff">
                  <path d="M1517 6439 L4360 6439" stroke-width="13" />
                  <path d="M1517 6619 L4360 6619" stroke-width="13" />
                  <path d="M1517 6799 L4360 6799" stroke-width="13" />
                  <path d="M1517 6979 L4360 6979" stroke-width="13" />
                  <path d="M1517 7159 L4360 7159" stroke-width="13" />
                  <g id="pg1xhl7" class="clef">
                     <use xlink:href="#E050-q1xe34ax" transform="translate(1634, 6979) scale(0.72, 0.72)" />
                  </g>
                  <g id="q1ytlvmo" class="keySig" />
                  <g id="ra2sab5" class="meterSig">
                     <use xlink:href="#E08A-q1xe34ax" transform="translate(2279, 6799) scale(0.72, 0.72)" />
                  </g>
                  <g id="o1dfja91" class="layer">
                     <g id="p1slib4g" class="mRest">
                        <use xlink:href="#E4E3-q1xe34ax" transform="translate(3392, 6619) scale(0.72, 0.72)" />
                     </g>
                  </g>
               </g>
               <g id="dnhka0m" class="barLine">
                  <path d="M4347 1039 L4347 1759" stroke-width="27" />
                  <path d="M4347 2839 L4347 3559" stroke-width="27" />
                  <path d="M4347 4639 L4347 5359" stroke-width="27" />
                  <path d="M4347 6439 L4347 7159" stroke-width="27" />
               </g>
            </g>
            <g id="hshi3o" class="measure">
               <g id="q1k9oxm6" class="staff">
                  <path d="M4360 1039 L6983 1039" stroke-width="13" />
                  <path d="M4360 1219 L6983 1219" stroke-width="13" />
                  <path d="M4360 1399 L6983 1399" stroke-width="13" />
                  <path d="M4360 1579 L6983 1579" stroke-width="13" />
                  <path d="M4360 1759 L6983 1759" stroke-width="13" />
                  <g class="ledgerLines above">
                     <path d="M6232 859 L6554 859" stroke-width="22" />
                     <path d="M6232 679 L6554 679" stroke-width="22" />
                     <path d="M6232 499 L6554 499" stroke-width="22" />
                  </g>
                  <g id="rdt5g6d" class="layer">
                     <g id="s1rtvsob" class="rest">
                        <use xlink:href="#E4E4-q1xe34ax" transform="translate(4540, 1399) scale(0.72, 0.72)" />
                        <g class="ledgerLines" />
                     </g>
                     <g id="t16wtl8l" class="rest">
                        <use xlink:href="#E4E5-q1xe34ax" transform="translate(5590, 1399) scale(0.72, 0.72)" />
                     </g>
                     <g id="vy2sm75" class="note">
                        <g class="notehead">
                           <use xlink:href="#E0A4-q1xe34ax" transform="translate(6280, 409) scale(0.72, 0.72)" />
                        </g>
                        <g id="pditqmb" class="stem">
                           <path d="M6289 437 L6289 1399" stroke-width="18" />
                        </g>
                        <g id="ww37nhl" class="accid">
                           <use xlink:href="#E262-q1xe34ax" transform="translate(6068, 409) scale(0.72, 0.72)" />
                        </g>
                     </g>
                  </g>
               </g>
               <g id="tjxg2nm" class="staff">
                  <path d="M4360 2839 L6983 2839" stroke-width="13" />
                  <path d="M4360 3019 L6983 3019" stroke-width="13" />
                  <path d="M4360 3199 L6983 3199" stroke-width="13" />
                  <path d="M4360 3379 L6983 3379" stroke-width="13" />
                  <path d="M4360 3559 L6983 3559" stroke-width="13" />
                  <g id="u16buqxj" class="layer">
                     <g id="vylgp88" class="rest">
                        <use xlink:href="#E4E4-q1xe34ax" transform="translate(4540, 3199) scale(0.72, 0.72)" />
                        <g class="ledgerLines" />
                     </g>
                     <g id="w100g7x6" class="rest">
                        <use xlink:href="#E4E5-q1xe34ax" transform="translate(5590, 3199) scale(0.72, 0.72)" />
                     </g>
                     <g id="ye1pgyh" class="note">
                        <g class="notehead">
                           <use xlink:href="#E0A4-q1xe34ax" transform="translate(6280, 2839) scale(0.72, 0.72)" />
                        </g>
                        <g id="qhdubd3" class="stem">
                           <path d="M6289 2867 L6289 3469" stroke-width="18" />
                        </g>
                        <g id="z76e4po" class="accid">
                           <use xlink:href="#E262-q1xe34ax" transform="translate(6094, 2839) scale(0.72, 0.72)" />
                        </g>
                     </g>
                  </g>
               </g>
               <g id="w1mhru9a" class="staff">
                  <path d="M4360 4639 L6983 4639" stroke-width="13" />
                  <path d="M4360 4819 L6983 4819" stroke-width="13" />
                  <path d="M4360 4999 L6983 4999" stroke-width="13" />
                  <path d="M4360 5179 L6983 5179" stroke-width="13" />
                  <path d="M4360 5359 L6983 5359" stroke-width="13" />
                  <g id="xsfu2pl" class="layer">
                     <g id="yxg42m4" class="rest">
                        <use xlink:href="#E4E4-q1xe34ax" transform="translate(4540, 4999) scale(0.72, 0.72)" />
                        <g class="ledgerLines" />
                     </g>
                     <g id="zzsg5p8" class="rest">
                        <use xlink:href="#E4E5-q1xe34ax" transform="translate(5590, 4999) scale(0.72, 0.72)" />
                     </g>
                     <g id="b41xh9d" class="note">
                        <g class="notehead">
                           <use xlink:href="#E0A4-q1xe34ax" transform="translate(6280, 4639) scale(0.72, 0.72)" />
                        </g>
                        <g id="r1dlraie" class="stem">
                           <path d="M6289 4667 L6289 5269" stroke-width="18" />
                        </g>
                        <g id="c1prysyn" class="accid">
                           <use xlink:href="#E262-q1xe34ax" transform="translate(6094, 4639) scale(0.72, 0.72)" />
                        </g>
                     </g>
                  </g>
               </g>
               <g id="z1mq4ivq" class="staff">
                  <path d="M4360 6439 L6983 6439" stroke-width="13" />
                  <path d="M4360 6619 L6983 6619" stroke-width="13" />
                  <path d="M4360 6799 L6983 6799" stroke-width="13" />
                  <path d="M4360 6979 L6983 6979" stroke-width="13" />
                  <path d="M4360 7159 L6983 7159" stroke-width="13" />
                  <g id="a19cseuo" class="layer">
                     <g id="b1ha9nw4" class="rest">
                        <use xlink:href="#E4E4-q1xe34ax" transform="translate(4540, 6799) scale(0.72, 0.72)" />
                        <g class="ledgerLines" />
                     </g>
                     <g id="c1xeht2h" class="rest">
                        <use xlink:href="#E4E5-q1xe34ax" transform="translate(5590, 6799) scale(0.72, 0.72)" />
                     </g>
                     <g id="em1fx6f" class="note">
                        <g class="notehead">
                           <use xlink:href="#E0A4-q1xe34ax" transform="translate(6280, 6439) scale(0.72, 0.72)" />
                        </g>
                        <g id="s8b1mrt" class="stem">
                           <path d="M6289 6467 L6289 7069" stroke-width="18" />
                        </g>
                        <g id="f12bb0zc" class="accid">
                           <use xlink:href="#E262-q1xe34ax" transform="translate(6094, 6439) scale(0.72, 0.72)" />
                        </g>
                     </g>
                  </g>
               </g>
               <g id="uf2wlwv" class="hairpin">
                  <polyline stroke-width="18" stroke-linecap="square" stroke-linejoin="miter" fill="none" points="6280,1955 6790,1884 6280,1813 " />
               </g>
               <g id="xejopfx" class="slur">
                  <path d="M6393,207 C7348,-119 8317,-58 9226,387 C8302,3 7355,-58 6393,207" stroke-width="9" stroke-linecap="round" stroke-linejoin="round" />
               </g>
               <g id="x14b6etq" class="hairpin">
                  <polyline stroke-width="18" stroke-linecap="square" stroke-linejoin="miter" fill="none" points="6280,3755 6790,3684 6280,3613 " />
               </g>
               <g id="aahuo2u" class="slur">
                  <path d="M6393,2636 C7287,2162 8255,2070 9226,2366 C8250,2131 7304,2221 6393,2636" stroke-width="9" stroke-linecap="round" stroke-linejoin="round" />
               </g>
               <g id="a1dm71zf" class="hairpin">
                  <polyline stroke-width="18" stroke-linecap="square" stroke-linejoin="miter" fill="none" points="6280,5555 6790,5484 6280,5413 " />
               </g>
               <g id="d96aoix" class="slur">
                  <path d="M6393,4436 C7287,3962 8255,3870 9226,4166 C8250,3931 7304,4021 6393,4436" stroke-width="9" stroke-linecap="round" stroke-linejoin="round" />
               </g>
               <g id="dfso2ax" class="hairpin">
                  <polyline stroke-width="18" stroke-linecap="square" stroke-linejoin="miter" fill="none" points="6280,7355 6790,7284 6280,7213 " />
               </g>
               <g id="gjyo4oj" class="slur">
                  <path d="M6393,6236 C7348,5907 8317,5968 9226,6414 C8302,6029 7355,5968 6393,6236" stroke-width="9" stroke-linecap="round" stroke-linejoin="round" />
               </g>
               <g id="p1gik7fk" class="barLine">
                  <path d="M6970 1039 L6970 1759" stroke-width="27" />
                  <path d="M6970 2839 L6970 3559" stroke-width="27" />
                  <path d="M6970 4639 L6970 5359" stroke-width="27" />
                  <path d="M6970 6439 L6970 7159" stroke-width="27" />
               </g>
            </g>
            <g id="y9p8z0p" class="measure">
               <g id="h1ii263o" class="staff">
                  <path d="M6983 1039 L9818 1039" stroke-width="13" />
                  <path d="M6983 1219 L9818 1219" stroke-width="13" />
                  <path d="M6983 1399 L9818 1399" stroke-width="13" />
                  <path d="M6983 1579 L9818 1579" stroke-width="13" />
                  <path d="M6983 1759 L9818 1759" stroke-width="13" />
                  <g class="ledgerLines above">
                     <path d="M7327 859 L7649 859" stroke-width="22" />
                     <path d="M8377 859 L8699 859" stroke-width="22" />
                     <path d="M9067 859 L9389 859" stroke-width="22" />
                     <path d="M7327 679 L7649 679" stroke-width="22" />
                     <path d="M8377 679 L8699 679" stroke-width="22" />
                     <path d="M9067 679 L9389 679" stroke-width="22" />
                  </g>
                  <g id="k1ux2zu5" class="layer">
                     <g id="l1imdqia" class="note">
                        <g class="notehead">
                           <use xlink:href="#E0A3-q1xe34ax" transform="translate(7375, 589) scale(0.72, 0.72)" />
                        </g>
                        <g id="t1kb2nxk" class="stem">
                           <path d="M7384 614 L7384 1399" stroke-width="18" />
                        </g>
                        <g id="m11s2nrs" class="accid">
                           <use xlink:href="#E262-q1xe34ax" transform="translate(7163, 589) scale(0.72, 0.72)" />
                        </g>
                     </g>
                     <g id="nl0qsmg" class="note">
                        <g class="notehead">
                           <use xlink:href="#E0A4-q1xe34ax" transform="translate(8425, 679) scale(0.72, 0.72)" />
                        </g>
                        <g id="u1h5mlkf" class="stem">
                           <path d="M8434 707 L8434 1399" stroke-width="18" />
                        </g>
                        <g id="o1om0pcv" class="accid">
                           <use xlink:href="#E262-q1xe34ax" transform="translate(8213, 679) scale(0.72, 0.72)" />
                        </g>
                     </g>
                     <g id="pwauahr" class="note">
                        <g class="notehead">
                           <use xlink:href="#E0A4-q1xe34ax" transform="translate(9115, 589) scale(0.72, 0.72)" />
                        </g>
                        <g id="vh6iqt6" class="stem">
                           <path d="M9124 617 L9124 1399" stroke-width="18" />
                        </g>
                        <g id="q113j2p2" class="accid" />
                     </g>
                  </g>
               </g>
               <g id="ks91wju" class="staff">
                  <path d="M6983 2839 L9818 2839" stroke-width="13" />
                  <path d="M6983 3019 L9818 3019" stroke-width="13" />
                  <path d="M6983 3199 L9818 3199" stroke-width="13" />
                  <path d="M6983 3379 L9818 3379" stroke-width="13" />
                  <path d="M6983 3559 L9818 3559" stroke-width="13" />
                  <g class="ledgerLines above">
                     <path d="M7327 2659 L7649 2659" stroke-width="22" />
                     <path d="M8377 2659 L8699 2659" stroke-width="22" />
                     <path d="M9067 2659 L9389 2659" stroke-width="22" />
                  </g>
                  <g id="nxwtbuc" class="layer">
                     <g id="o7bdr1h" class="note">
                        <g class="notehead">
                           <use xlink:href="#E0A3-q1xe34ax" transform="translate(7375, 2569) scale(0.72, 0.72)" />
                        </g>
                        <g id="w8hhswc" class="stem">
                           <path d="M7384 2594 L7384 3199" stroke-width="18" />
                        </g>
                     </g>
                     <g id="p6lsica" class="note">
                        <g class="notehead">
                           <use xlink:href="#E0A4-q1xe34ax" transform="translate(8425, 2659) scale(0.72, 0.72)" />
                        </g>
                        <g id="xvwa5d3" class="stem">
                           <path d="M8434 2687 L8434 3289" stroke-width="18" />
                        </g>
                        <g id="qz89loz" class="accid">
                           <use xlink:href="#E262-q1xe34ax" transform="translate(8213, 2659) scale(0.72, 0.72)" />
                        </g>
                     </g>
                     <g id="rrolemb" class="note">
                        <g class="notehead">
                           <use xlink:href="#E0A4-q1xe34ax" transform="translate(9115, 2569) scale(0.72, 0.72)" />
                        </g>
                        <g id="yp0isb6" class="stem">
                           <path d="M9124 2597 L9124 3199" stroke-width="18" />
                        </g>
                     </g>
                  </g>
               </g>
               <g id="n14x90v8" class="staff">
                  <path d="M6983 4639 L9818 4639" stroke-width="13" />
                  <path d="M6983 4819 L9818 4819" stroke-width="13" />
                  <path d="M6983 4999 L9818 4999" stroke-width="13" />
                  <path d="M6983 5179 L9818 5179" stroke-width="13" />
                  <path d="M6983 5359 L9818 5359" stroke-width="13" />
                  <g class="ledgerLines above">
                     <path d="M7327 4459 L7649 4459" stroke-width="22" />
                     <path d="M8377 4459 L8699 4459" stroke-width="22" />
                     <path d="M9067 4459 L9389 4459" stroke-width="22" />
                  </g>
                  <g id="q1i2kfh7" class="layer">
                     <g id="r1k32ubx" class="note">
                        <g class="notehead">
                           <use xlink:href="#E0A3-q1xe34ax" transform="translate(7375, 4369) scale(0.72, 0.72)" />
                        </g>
                        <g id="zhi490t" class="stem">
                           <path d="M7384 4394 L7384 4999" stroke-width="18" />
                        </g>
                     </g>
                     <g id="s1al1bp0" class="note">
                        <g class="notehead">
                           <use xlink:href="#E0A4-q1xe34ax" transform="translate(8425, 4459) scale(0.72, 0.72)" />
                        </g>
                        <g id="a8i3gjy" class="stem">
                           <path d="M8434 4487 L8434 5089" stroke-width="18" />
                        </g>
                        <g id="t82tqpn" class="accid">
                           <use xlink:href="#E262-q1xe34ax" transform="translate(8213, 4459) scale(0.72, 0.72)" />
                        </g>
                     </g>
                     <g id="ubqd0ox" class="note">
                        <g class="notehead">
                           <use xlink:href="#E0A4-q1xe34ax" transform="translate(9115, 4369) scale(0.72, 0.72)" />
                        </g>
                        <g id="bdrswvs" class="stem">
                           <path d="M9124 4397 L9124 4999" stroke-width="18" />
                        </g>
                     </g>
                  </g>
               </g>
               <g id="q8wg0u9" class="staff">
                  <path d="M6983 6439 L9818 6439" stroke-width="13" />
                  <path d="M6983 6619 L9818 6619" stroke-width="13" />
                  <path d="M6983 6799 L9818 6799" stroke-width="13" />
                  <path d="M6983 6979 L9818 6979" stroke-width="13" />
                  <path d="M6983 7159 L9818 7159" stroke-width="13" />
                  <g id="ttvizxo" class="layer">
                     <g id="u1qt2l56" class="note">
                        <g class="notehead">
                           <use xlink:href="#E0A3-q1xe34ax" transform="translate(7375, 6619) scale(0.72, 0.72)" />
                        </g>
                        <g id="c1ewqrdy" class="stem">
                           <path d="M7384 6644 L7384 7249" stroke-width="18" />
                        </g>
                        <g id="vmrcoww" class="accid">
                           <use xlink:href="#E262-q1xe34ax" transform="translate(7189, 6619) scale(0.72, 0.72)" />
                        </g>
                     </g>
                     <g id="wjg9ofs" class="note">
                        <g class="notehead">
                           <use xlink:href="#E0A4-q1xe34ax" transform="translate(8425, 6709) scale(0.72, 0.72)" />
                        </g>
                        <g id="dxklivu" class="stem">
                           <path d="M8434 6737 L8434 7339" stroke-width="18" />
                        </g>
                        <g id="x1r7wfux" class="accid">
                           <use xlink:href="#E262-q1xe34ax" transform="translate(8239, 6709) scale(0.72, 0.72)" />
                        </g>
                     </g>
                     <g id="y1hm2ehb" class="note">
                        <g class="notehead">
                           <use xlink:href="#E0A4-q1xe34ax" transform="translate(9115, 6619) scale(0.72, 0.72)" />
                        </g>
                        <g id="ebvjr9b" class="stem">
                           <path d="M9124 6647 L9124 7249" stroke-width="18" />
                        </g>
                        <g id="zq0ild1" class="accid" />
                     </g>
                  </g>
               </g>
               <g id="i1395fc8" class="dynam">
                  <use xlink:href="#E520-q1xe34ax" transform="translate(7375, 1993) scale(0.72, 0.72)" />
               </g>
               <g id="l1f7twfi" class="dynam">
                  <use xlink:href="#E520-q1xe34ax" transform="translate(7375, 3793) scale(0.72, 0.72)" />
               </g>
               <g id="o149wp7d" class="dynam">
                  <use xlink:href="#E520-q1xe34ax" transform="translate(7375, 5593) scale(0.72, 0.72)" />
               </g>
               <g id="rumopxl" class="dynam">
                  <use xlink:href="#E520-q1xe34ax" transform="translate(7375, 7492) scale(0.72, 0.72)" />
               </g>
               <g id="g12ywlu2" class="barLine">
                  <path d="M9805 1039 L9805 1759" stroke-width="27" />
                  <path d="M9805 2839 L9805 3559" stroke-width="27" />
                  <path d="M9805 4639 L9805 5359" stroke-width="27" />
                  <path d="M9805 6439 L9805 7159" stroke-width="27" />
               </g>
            </g>
            <g id="rym9k1i" class="measure">
               <g id="a1du6ikv" class="staff">
                  <path d="M9818 1039 L12627 1039" stroke-width="13" />
                  <path d="M9818 1219 L12627 1219" stroke-width="13" />
                  <path d="M9818 1399 L12627 1399" stroke-width="13" />
                  <path d="M9818 1579 L12627 1579" stroke-width="13" />
                  <path d="M9818 1759 L12627 1759" stroke-width="13" />
                  <g class="ledgerLines above">
                     <path d="M10136 859 L10458 859" stroke-width="22" />
                     <path d="M11876 859 L12198 859" stroke-width="22" />
                  </g>
                  <g id="b1a07c7u" class="layer">
                     <g id="cf7bak8" class="note">
                        <g class="notehead">
                           <use xlink:href="#E0A3-q1xe34ax" transform="translate(10184, 769) scale(0.72, 0.72)" />
                        </g>
                        <g id="f11po93n" class="stem">
                           <path d="M10193 794 L10193 1399" stroke-width="18" />
                        </g>
                     </g>
                     <g id="e1evo264" class="note">
                        <g class="notehead">
                           <use xlink:href="#E0A4-q1xe34ax" transform="translate(11234, 1039) scale(0.72, 0.72)" />
                        </g>
                        <g id="grwpq5n" class="stem">
                           <path d="M11243 1067 L11243 1669" stroke-width="18" />
                        </g>
                        <g id="ffmh7t8" class="accid">
                           <use xlink:href="#E262-q1xe34ax" transform="translate(11048, 1039) scale(0.72, 0.72)" />
                        </g>
                     </g>
                     <g id="g1sjgu0v" class="note">
                        <g class="notehead">
                           <use xlink:href="#E0A4-q1xe34ax" transform="translate(11924, 769) scale(0.72, 0.72)" />
                        </g>
                        <g id="h10zlkg0" class="stem">
                           <path d="M11933 797 L11933 1399" stroke-width="18" />
                        </g>
                     </g>
                  </g>
               </g>
               <g id="bivu1f8" class="staff">
                  <path d="M9818 2839 L12627 2839" stroke-width="13" />
                  <path d="M9818 3019 L12627 3019" stroke-width="13" />
                  <path d="M9818 3199 L12627 3199" stroke-width="13" />
                  <path d="M9818 3379 L12627 3379" stroke-width="13" />
                  <path d="M9818 3559 L12627 3559" stroke-width="13" />
                  <g id="clei4pw" class="layer">
                     <g id="d1bdw6hu" class="note">
                        <g class="notehead">
                           <use xlink:href="#E0A3-q1xe34ax" transform="translate(10184, 2749) scale(0.72, 0.72)" />
                        </g>
                        <g id="i1qx3803" class="stem">
                           <path d="M10193 2774 L10193 3379" stroke-width="18" />
                        </g>
                        <g id="e194dtf6" class="accid">
                           <use xlink:href="#E262-q1xe34ax" transform="translate(9998, 2749) scale(0.72, 0.72)" />
                        </g>
                     </g>
                     <g id="g1t71n0h" class="note">
                        <g class="notehead">
                           <use xlink:href="#E0A4-q1xe34ax" transform="translate(11234, 2839) scale(0.72, 0.72)" />
                        </g>
                        <g id="j1qvxnu7" class="stem">
                           <path d="M11243 2867 L11243 3469" stroke-width="18" />
                        </g>
                        <g id="h17uo44f" class="accid">
                           <use xlink:href="#E262-q1xe34ax" transform="translate(11048, 2839) scale(0.72, 0.72)" />
                        </g>
                     </g>
                     <g id="ibv4ql0" class="note">
                        <g class="notehead">
                           <use xlink:href="#E0A4-q1xe34ax" transform="translate(11924, 3019) scale(0.72, 0.72)" />
                        </g>
                        <g id="kd6andh" class="stem">
                           <path d="M11933 3047 L11933 3649" stroke-width="18" />
                        </g>
                        <g id="j1978lvq" class="accid">
                           <use xlink:href="#E262-q1xe34ax" transform="translate(11738, 3019) scale(0.72, 0.72)" />
                        </g>
                     </g>
                  </g>
               </g>
               <g id="efi28g2" class="staff">
                  <path d="M9818 4639 L12627 4639" stroke-width="13" />
                  <path d="M9818 4819 L12627 4819" stroke-width="13" />
                  <path d="M9818 4999 L12627 4999" stroke-width="13" />
                  <path d="M9818 5179 L12627 5179" stroke-width="13" />
                  <path d="M9818 5359 L12627 5359" stroke-width="13" />
                  <g id="fq0wd1a" class="layer">
                     <g id="gjcqj0i" class="note">
                        <g class="notehead">
                           <use xlink:href="#E0A3-q1xe34ax" transform="translate(10184, 4549) scale(0.72, 0.72)" />
                        </g>
                        <g id="ld9igpu" class="stem">
                           <path d="M10193 4574 L10193 5179" stroke-width="18" />
                        </g>
                        <g id="hf8v27" class="accid">
                           <use xlink:href="#E262-q1xe34ax" transform="translate(9998, 4549) scale(0.72, 0.72)" />
                        </g>
                     </g>
                     <g id="j3gqy8y" class="note">
                        <g class="notehead">
                           <use xlink:href="#E0A4-q1xe34ax" transform="translate(11234, 4639) scale(0.72, 0.72)" />
                        </g>
                        <g id="m1iezqyt" class="stem">
                           <path d="M11243 4667 L11243 5269" stroke-width="18" />
                        </g>
                        <g id="k1pj6i5r" class="accid">
                           <use xlink:href="#E262-q1xe34ax" transform="translate(11048, 4639) scale(0.72, 0.72)" />
                        </g>
                     </g>
                     <g id="l19mwhwg" class="note">
                        <g class="notehead">
                           <use xlink:href="#E0A4-q1xe34ax" transform="translate(11924, 4819) scale(0.72, 0.72)" />
                        </g>
                        <g id="nercini" class="stem">
                           <path d="M11933 4847 L11933 5449" stroke-width="18" />
                        </g>
                        <g id="mgha9wc" class="accid">
                           <use xlink:href="#E262-q1xe34ax" transform="translate(11738, 4819) scale(0.72, 0.72)" />
                        </g>
                     </g>
                  </g>
               </g>
               <g id="jdlt1re" class="staff">
                  <path d="M9818 6439 L12627 6439" stroke-width="13" />
                  <path d="M9818 6619 L12627 6619" stroke-width="13" />
                  <path d="M9818 6799 L12627 6799" stroke-width="13" />
                  <path d="M9818 6979 L12627 6979" stroke-width="13" />
                  <path d="M9818 7159 L12627 7159" stroke-width="13" />
                  <g id="ki8d1d5" class="layer">
                     <g id="l1qp2fdv" class="note">
                        <g class="notehead">
                           <use xlink:href="#E0A3-q1xe34ax" transform="translate(10184, 6529) scale(0.72, 0.72)" />
                        </g>
                        <g id="o1xyvwuf" class="stem">
                           <path d="M10193 6554 L10193 7159" stroke-width="18" />
                        </g>
                     </g>
                     <g id="n1vplwzu" class="note">
                        <g class="notehead">
                           <use xlink:href="#E0A4-q1xe34ax" transform="translate(11234, 6619) scale(0.72, 0.72)" />
                        </g>
                        <g id="p1hi9j1a" class="stem">
                           <path d="M11243 6647 L11243 7249" stroke-width="18" />
                        </g>
                        <g id="obfnaxu" class="accid">
                           <use xlink:href="#E262-q1xe34ax" transform="translate(11048, 6619) scale(0.72, 0.72)" />
                        </g>
                     </g>
                     <g id="pfnrp9e" class="note">
                        <g class="notehead">
                           <use xlink:href="#E0A4-q1xe34ax" transform="translate(11924, 6799) scale(0.72, 0.72)" />
                        </g>
                        <g id="q1ppwv60" class="stem">
                           <path d="M11933 6827 L11933 7399" stroke-width="18" />
                        </g>
                     </g>
                  </g>
               </g>
               <g id="dx96shy" class="slur">
                  <path d="M10297,566 C10583,389 11179,539 11345,834 C11143,591 10590,451 10297,566" stroke-width="9" stroke-linecap="round" stroke-linejoin="round" />
               </g>
               <g id="h7hd3gz" class="slur" />
               <g id="fy56k3k" class="slur">
                  <path d="M10297,2546 C10540,2325 11140,2377 11345,2634 C11112,2435 10558,2387 10297,2546" stroke-width="9" stroke-linecap="round" stroke-linejoin="round" />
               </g>
               <g id="k1vnz32f" class="slur" />
               <g id="i15hw474" class="slur">
                  <path d="M10297,4346 C10540,4125 11140,4177 11345,4434 C11112,4235 10558,4187 10297,4346" stroke-width="9" stroke-linecap="round" stroke-linejoin="round" />
               </g>
               <g id="n1u62squ" class="slur" />
               <g id="m146lcu7" class="slur">
                  <path d="M10297,6326 C10540,6104 11140,6156 11345,6414 C11113,6212 10557,6164 10297,6326" stroke-width="9" stroke-linecap="round" stroke-linejoin="round" />
               </g>
               <g id="qabcimw" class="slur" />
               <g id="z1ssdb8x" class="barLine">
                  <path d="M12614 1039 L12614 1759" stroke-width="27" />
                  <path d="M12614 2839 L12614 3559" stroke-width="27" />
                  <path d="M12614 4639 L12614 5359" stroke-width="27" />
                  <path d="M12614 6439 L12614 7159" stroke-width="27" />
               </g>
            </g>
            <g id="awtxv5l" class="systemMilestoneEnd r187ivc3" />
            <g id="b1mk8ne4" class="systemMilestoneEnd d1mgewxs" />
         </g>
         <g id="c14gar7" class="pageMilestoneEnd b16ti0io" />
         <g id="d1j7tyus" class="pageMilestoneEnd a1pt68io" />
      </g>
   </svg>
</svg>
